<svg width="154" height="44" viewBox="0 0 154 44" fill="none" xmlns="http://www.w3.org/2000/svg">
<rect x="0.75" width="152.5" height="43.5367" rx="3" fill="#2F6B42"/>
<path fill-rule="evenodd" clip-rule="evenodd" d="M6.17054 4L45.7351 4.02638C46.498 4.02638 47.1293 4.63317 47.1293 5.37186L47.103 37.5052C47.103 38.2439 46.4716 38.8506 45.7088 38.8506H6.14423C5.38135 38.8506 4.75 38.2439 4.75 37.5052L4.77631 5.34548C4.77631 4.60679 5.40766 4 6.17054 4Z" fill="white"/>
<path fill-rule="evenodd" clip-rule="evenodd" d="M7.80164 5.71484L44.0779 5.74123C44.7882 5.74123 45.3669 6.29525 45.3669 6.98118L45.3406 35.8167C45.3406 36.5026 44.7619 37.0567 44.0516 37.0567L7.77533 37.0303C7.06506 37.0303 6.48633 36.4763 6.48633 35.7903L6.51263 6.9548C6.51263 6.26887 7.09137 5.71484 7.80164 5.71484Z" fill="#81B833"/>
<mask id="mask0_865_25777" style="mask-type:luminance" maskUnits="userSpaceOnUse" x="6" y="5" width="40" height="33">
<path d="M7.80164 5.71484L44.0779 5.74123C44.7882 5.74123 45.3669 6.29525 45.3669 6.98118L45.3406 35.8167C45.3406 36.5026 44.7619 37.0567 44.0516 37.0567L7.77533 37.0303C7.06506 37.0303 6.48633 36.4763 6.48633 35.7903L6.51263 6.9548C6.51263 6.26887 7.09137 5.71484 7.80164 5.71484Z" fill="white"/>
</mask>
<g mask="url(#mask0_865_25777)">
<mask id="mask1_865_25777" style="mask-type:luminance" maskUnits="userSpaceOnUse" x="6" y="5" width="40" height="36">
<path d="M7.69641 5.71484L44.2094 5.74123C44.8408 5.74123 45.3669 6.13696 45.3669 6.63821L45.3406 39.8532C45.3406 40.328 44.8145 40.7502 44.1831 40.7502L7.6438 40.7238C7.01245 40.7238 6.48633 40.328 6.48633 39.8268L6.51263 6.58545C6.51263 6.11057 7.03876 5.71484 7.69641 5.71484Z" fill="white"/>
</mask>
<g mask="url(#mask1_865_25777)">
<path fill-rule="evenodd" clip-rule="evenodd" d="M45.6564 12.3364L14.9834 21.8603L45.8669 32.1493L45.6564 12.3364Z" fill="white"/>
</g>
<mask id="mask2_865_25777" style="mask-type:luminance" maskUnits="userSpaceOnUse" x="6" y="5" width="40" height="36">
<path d="M7.69641 5.71484L44.2094 5.74123C44.8408 5.74123 45.3669 6.13696 45.3669 6.63821L45.3406 39.8532C45.3406 40.328 44.8145 40.7502 44.1831 40.7502L7.6438 40.7238C7.01245 40.7238 6.48633 40.328 6.48633 39.8268L6.51263 6.58545C6.51263 6.11057 7.03876 5.71484 7.69641 5.71484Z" fill="white"/>
</mask>
<g mask="url(#mask2_865_25777)">
<path d="M45.6564 12.3364L14.9834 21.8603L45.8669 32.1493L45.6564 12.3364Z" stroke="white" stroke-width="0.5669" stroke-miterlimit="22.9256"/>
</g>
<mask id="mask3_865_25777" style="mask-type:luminance" maskUnits="userSpaceOnUse" x="6" y="5" width="40" height="36">
<path d="M7.69641 5.71484L44.2094 5.74123C44.8408 5.74123 45.3669 6.13696 45.3669 6.63821L45.3406 39.8532C45.3406 40.328 44.8145 40.7502 44.1831 40.7502L7.6438 40.7238C7.01245 40.7238 6.48633 40.328 6.48633 39.8268L6.51263 6.58545C6.51263 6.11057 7.03876 5.71484 7.69641 5.71484Z" fill="white"/>
</mask>
<g mask="url(#mask3_865_25777)">
<path fill-rule="evenodd" clip-rule="evenodd" d="M45.761 13.9194L45.7347 17.7976L24.9528 24.4195L18.0605 22.1242L45.761 13.9194Z" fill="#19632D"/>
</g>
<mask id="mask4_865_25777" style="mask-type:luminance" maskUnits="userSpaceOnUse" x="6" y="5" width="40" height="36">
<path d="M7.69641 5.71484L44.2094 5.74123C44.8408 5.74123 45.3669 6.13696 45.3669 6.63821L45.3406 39.8532C45.3406 40.328 44.8145 40.7502 44.1831 40.7502L7.6438 40.7238C7.01245 40.7238 6.48633 40.328 6.48633 39.8268L6.51263 6.58545C6.51263 6.11057 7.03876 5.71484 7.69641 5.71484Z" fill="white"/>
</mask>
<g mask="url(#mask4_865_25777)">
<path fill-rule="evenodd" clip-rule="evenodd" d="M45.8669 23.3378L34.0291 27.5062L27.3999 25.2109L45.8143 19.1431L45.8669 23.3378Z" fill="#19632D"/>
</g>
<mask id="mask5_865_25777" style="mask-type:luminance" maskUnits="userSpaceOnUse" x="6" y="5" width="40" height="36">
<path d="M7.69641 5.71484L44.2094 5.74123C44.8408 5.74123 45.3669 6.13696 45.3669 6.63821L45.3406 39.8532C45.3406 40.328 44.8145 40.7502 44.1831 40.7502L7.6438 40.7238C7.01245 40.7238 6.48633 40.328 6.48633 39.8268L6.51263 6.58545C6.51263 6.11057 7.03876 5.71484 7.69641 5.71484Z" fill="white"/>
</mask>
<g mask="url(#mask5_865_25777)">
<path fill-rule="evenodd" clip-rule="evenodd" d="M45.7349 24.7627L36.7119 28.3243L43.7883 30.6986L45.7349 30.1182V24.7627Z" fill="#19632D"/>
</g>
<mask id="mask6_865_25777" style="mask-type:luminance" maskUnits="userSpaceOnUse" x="6" y="5" width="40" height="36">
<path d="M7.69641 5.71484L44.2094 5.74123C44.8408 5.74123 45.3669 6.13696 45.3669 6.63821L45.3406 39.8532C45.3406 40.328 44.8145 40.7502 44.1831 40.7502L7.6438 40.7238C7.01245 40.7238 6.48633 40.328 6.48633 39.8268L6.51263 6.58545C6.51263 6.11057 7.03876 5.71484 7.69641 5.71484Z" fill="white"/>
</mask>
<g mask="url(#mask6_865_25777)">
<path fill-rule="evenodd" clip-rule="evenodd" d="M6.43317 18.7476L6.24902 37.6371L46.3923 37.6635L46.4186 32.8883L6.43317 18.7476Z" fill="white"/>
</g>
<mask id="mask7_865_25777" style="mask-type:luminance" maskUnits="userSpaceOnUse" x="6" y="5" width="40" height="36">
<path d="M7.69641 5.71484L44.2094 5.74123C44.8408 5.74123 45.3669 6.13696 45.3669 6.63821L45.3406 39.8532C45.3406 40.328 44.8145 40.7502 44.1831 40.7502L7.6438 40.7238C7.01245 40.7238 6.48633 40.328 6.48633 39.8268L6.51263 6.58545C6.51263 6.11057 7.03876 5.71484 7.69641 5.71484Z" fill="white"/>
</mask>
<g mask="url(#mask7_865_25777)">
<path d="M6.43317 18.7476L6.24902 37.6371L46.3923 37.6635L46.4186 32.8883L6.43317 18.7476Z" stroke="white" stroke-width="0.5669" stroke-miterlimit="22.9256"/>
</g>
<mask id="mask8_865_25777" style="mask-type:luminance" maskUnits="userSpaceOnUse" x="6" y="5" width="40" height="36">
<path d="M7.69641 5.71484L44.2094 5.74123C44.8408 5.74123 45.3669 6.13696 45.3669 6.63821L45.3406 39.8532C45.3406 40.328 44.8145 40.7502 44.1831 40.7502L7.6438 40.7238C7.01245 40.7238 6.48633 40.328 6.48633 39.8268L6.51263 6.58545C6.51263 6.11057 7.03876 5.71484 7.69641 5.71484Z" fill="white"/>
</mask>
<g mask="url(#mask8_865_25777)">
<path fill-rule="evenodd" clip-rule="evenodd" d="M6.302 19.3281L6.19678 23.4701L39.0269 37.6636H46.3927L46.419 32.8885L6.302 19.3281Z" fill="#81B833"/>
</g>
<mask id="mask9_865_25777" style="mask-type:luminance" maskUnits="userSpaceOnUse" x="6" y="5" width="40" height="36">
<path d="M7.69641 5.71484L44.2094 5.74123C44.8408 5.74123 45.3669 6.13696 45.3669 6.63821L45.3406 39.8532C45.3406 40.328 44.8145 40.7502 44.1831 40.7502L7.6438 40.7238C7.01245 40.7238 6.48633 40.328 6.48633 39.8268L6.51263 6.58545C6.51263 6.11057 7.03876 5.71484 7.69641 5.71484Z" fill="white"/>
</mask>
<g mask="url(#mask9_865_25777)">
<path fill-rule="evenodd" clip-rule="evenodd" d="M6.24902 24.499V28.4036L19.823 37.0041L32.8183 37.0305L6.24902 24.499Z" fill="#81B833"/>
</g>
<mask id="mask10_865_25777" style="mask-type:luminance" maskUnits="userSpaceOnUse" x="6" y="5" width="40" height="36">
<path d="M7.69641 5.71484L44.2094 5.74123C44.8408 5.74123 45.3669 6.13696 45.3669 6.63821L45.3406 39.8532C45.3406 40.328 44.8145 40.7502 44.1831 40.7502L7.6438 40.7238C7.01245 40.7238 6.48633 40.328 6.48633 39.8268L6.51263 6.58545C6.51263 6.11057 7.03876 5.71484 7.69641 5.71484Z" fill="white"/>
</mask>
<g mask="url(#mask10_865_25777)">
<path fill-rule="evenodd" clip-rule="evenodd" d="M6.24902 30.0391V35.1836L8.74811 37.0831L16.9557 37.0567L6.24902 30.0391Z" fill="#81B833"/>
</g>
<mask id="mask11_865_25777" style="mask-type:luminance" maskUnits="userSpaceOnUse" x="6" y="5" width="40" height="36">
<path d="M7.69641 5.71484L44.2094 5.74123C44.8408 5.74123 45.3669 6.13696 45.3669 6.63821L45.3406 39.8532C45.3406 40.328 44.8145 40.7502 44.1831 40.7502L7.6438 40.7238C7.01245 40.7238 6.48633 40.328 6.48633 39.8268L6.51263 6.58545C6.51263 6.11057 7.03876 5.71484 7.69641 5.71484Z" fill="white"/>
</mask>
<g mask="url(#mask11_865_25777)">
<path fill-rule="evenodd" clip-rule="evenodd" d="M45.656 12.6271V5.42482L6.17041 5.39844L6.32825 19.3545C6.06519 11.3872 18.9815 10.0944 22.3487 19.8822L45.656 12.6271Z" fill="#E1E8C9"/>
</g>
<mask id="mask12_865_25777" style="mask-type:luminance" maskUnits="userSpaceOnUse" x="6" y="5" width="40" height="36">
<path d="M7.69641 5.71484L44.2094 5.74123C44.8408 5.74123 45.3669 6.13696 45.3669 6.63821L45.3406 39.8532C45.3406 40.328 44.8145 40.7502 44.1831 40.7502L7.6438 40.7238C7.01245 40.7238 6.48633 40.328 6.48633 39.8268L6.51263 6.58545C6.51263 6.11057 7.03876 5.71484 7.69641 5.71484Z" fill="white"/>
</mask>
<g mask="url(#mask12_865_25777)">
<path fill-rule="evenodd" clip-rule="evenodd" d="M22.2703 19.5916L15.115 21.8077L6.43397 18.7474C5.56586 11.2549 22.3229 9.72476 22.2703 19.5916Z" fill="white"/>
</g>
</g>
<path fill-rule="evenodd" clip-rule="evenodd" d="M60.7034 29.063H58.5463C58.4147 29.063 58.3621 28.9575 58.3884 28.8519L61.019 17.1119C61.0453 17.0064 61.1506 16.9009 61.2821 16.9009H61.5978H63.4392H63.7549C63.8864 16.9009 63.9916 17.0064 64.0442 17.1119L66.6486 25.3167L68.49 17.1119C68.5163 17.0064 68.6215 16.9009 68.7531 16.9009H70.9102C71.0417 16.9009 71.0943 17.0064 71.068 17.1119L68.4374 28.8519C68.4111 28.9575 68.3059 29.063 68.1743 29.063H67.6219H66.0172H65.4648C65.3333 29.063 65.228 28.9575 65.1754 28.8519L62.7026 21.0956L60.9664 28.8519C60.9401 28.9838 60.8086 29.063 60.7034 29.063Z" fill="white"/>
<path fill-rule="evenodd" clip-rule="evenodd" d="M70.3049 27.058L72.199 18.6949C72.199 18.6949 72.5936 16.8746 74.6192 16.7954C76.6447 16.7163 82.5636 16.7954 82.5636 16.7954C82.5636 16.7954 82.9319 16.7427 82.853 17.1648C82.7741 17.5869 82.4321 18.8005 82.4321 18.8005C82.4321 18.8005 82.3532 19.0907 82.0901 19.117C81.827 19.1434 75.9871 19.117 75.9871 19.117C75.9871 19.117 74.8033 19.0643 74.6192 19.7502C74.435 20.4361 73.2512 26.1874 73.2512 26.1874C73.2512 26.1874 73.1986 26.6623 73.5406 26.6887C73.8826 26.7414 80.2224 26.6887 80.2224 26.6887C80.2224 26.6887 80.6696 26.6359 80.5907 27.058C80.5117 27.4538 80.2224 28.7729 80.2224 28.7729C80.2224 28.7729 80.1961 29.0103 80.0119 29.0103C79.8278 29.0367 71.8044 29.0103 71.8044 29.0103C71.8044 29.0103 69.9366 29.0367 70.3049 27.058Z" fill="white"/>
<path fill-rule="evenodd" clip-rule="evenodd" d="M91.008 19.117C90.9817 19.117 90.9554 19.117 90.9291 19.117C90.666 19.1434 87.1936 19.117 87.1936 19.117C87.1936 19.117 86.0098 19.0643 85.8257 19.7502C85.6415 20.4361 84.4577 26.1874 84.4577 26.1874C84.4577 26.1874 84.4051 26.6359 84.7208 26.6887C84.7471 26.6887 84.7734 26.6887 84.7997 26.6887C85.0628 26.6623 88.5352 26.6887 88.5352 26.6887C88.5352 26.6887 89.719 26.7414 89.9031 26.0555C90.0873 25.3696 91.271 19.6183 91.271 19.6183C91.271 19.6183 91.35 19.1962 91.008 19.117ZM81.5114 27.058L83.4055 18.6949C83.4055 18.6949 83.8001 16.8746 85.8257 16.7954C86.1413 16.7954 86.5096 16.769 86.8779 16.769H86.9042C86.9568 16.769 87.3777 16.769 87.9565 16.769H87.9828H88.0091H88.088H88.1143H88.1932H88.2195C89.9557 16.769 92.7179 16.769 92.7179 16.769C92.7179 16.769 94.6382 16.769 94.2437 18.7213L92.3496 27.0844C92.3496 27.0844 91.955 28.9048 89.9294 28.9839C89.6138 28.9839 89.2455 29.0103 88.8772 29.0103H88.8509C88.7983 29.0103 88.3774 29.0103 87.7986 29.0103H87.7723H87.746H87.6671H87.6408H87.5619H87.5356C85.7994 29.0103 83.0372 29.0103 83.0372 29.0103C83.0372 29.0103 81.1168 29.0367 81.5114 27.058Z" fill="white"/>
<path fill-rule="evenodd" clip-rule="evenodd" d="M104.53 29.0893H102.215C102.083 29.0893 102.031 28.9838 102.057 28.8782L103.898 20.7262C103.898 20.7262 103.925 20.5152 104.03 20.1986L104.056 20.1194C104.056 20.093 104.082 20.0667 104.082 20.0403C104.424 18.985 105.45 17.0063 108.423 16.7425C112.5 16.3732 113.921 16.6898 113.921 16.6898C113.921 16.6898 114.184 16.6898 114.131 16.9536C114.079 17.2174 113.711 18.6684 113.711 18.6684C113.711 18.6684 113.658 18.985 113.158 18.9586C112.685 18.9322 109.186 18.9058 108.265 19.1169C107.45 19.328 107.108 19.5654 106.792 20.1458L106.476 21.544C107.713 21.544 109.16 21.544 109.37 21.544C109.765 21.544 109.738 21.9398 109.738 21.9398C109.738 21.9398 109.528 22.784 109.396 23.3644C109.265 23.9448 108.818 23.892 108.818 23.892H105.95L104.845 28.8519C104.766 29.0102 104.635 29.0893 104.53 29.0893Z" fill="white"/>
<path fill-rule="evenodd" clip-rule="evenodd" d="M113.421 24.3931L115.13 16.795C115.157 16.6895 115.262 16.584 115.394 16.584H117.708C117.84 16.584 117.893 16.6895 117.866 16.795L116.104 25.6594C116.025 26.0287 116.156 26.2662 116.577 26.3981C117.551 26.7674 120.023 26.4772 120.339 26.5036C120.707 26.5564 120.602 26.8994 120.602 26.8994C120.602 26.8994 120.313 28.324 120.234 28.5614C120.155 28.8252 119.918 28.7725 119.918 28.7725C119.918 28.7725 117.524 28.8516 114.841 28.6406C112.105 28.4559 113.421 24.3931 113.421 24.3931Z" fill="white"/>
<path fill-rule="evenodd" clip-rule="evenodd" d="M121.497 28.8516H122.102H123.496H130.467C130.599 28.8516 130.73 28.7461 130.756 28.6142L131.151 26.8466C131.177 26.7147 131.098 26.6091 130.967 26.6091H124.311L124.89 23.7071H128.021C128.152 23.7071 128.284 23.6016 128.31 23.4697L128.705 21.7021C128.731 21.5702 128.652 21.4646 128.52 21.4646H125.337L125.864 18.8528H132.677C132.808 18.8528 132.94 18.7473 132.966 18.6154L133.361 16.8478C133.387 16.7159 133.308 16.6104 133.177 16.6104H125.89H124.811H123.917C123.706 16.6104 123.496 16.7686 123.443 16.9797L121.155 28.3767C121.128 28.6933 121.286 28.8516 121.497 28.8516Z" fill="white"/>
<path fill-rule="evenodd" clip-rule="evenodd" d="M134.045 28.7988H131.651C131.467 28.7988 131.441 28.6669 131.572 28.4822L135.86 22.7837L134.019 17.006C133.966 16.8477 134.045 16.6895 134.229 16.6895H136.623C136.807 16.6895 137.018 16.8214 137.044 17.006L137.991 20.7523L140.674 17.006C140.806 16.8214 141.069 16.6895 141.227 16.6895H143.621C143.805 16.6895 143.831 16.8214 143.7 17.006L139.359 22.8365L141.122 28.5086C141.174 28.6933 141.095 28.8252 140.911 28.8252H138.517C138.333 28.8252 138.123 28.6933 138.096 28.5086L137.255 25.1581L134.598 28.5086C134.466 28.6669 134.203 28.7988 134.045 28.7988Z" fill="white"/>
<path fill-rule="evenodd" clip-rule="evenodd" d="M56.0209 29.063H53.7059C53.5744 29.063 53.5218 28.9575 53.5481 28.8519L56.1787 17.1119C56.205 17.0064 56.3102 16.9009 56.4418 16.9009H58.7567C58.8882 16.9009 58.9409 17.0064 58.9145 17.1119L56.2839 28.8519C56.2576 28.9838 56.1261 29.063 56.0209 29.063Z" fill="white"/>
<path fill-rule="evenodd" clip-rule="evenodd" d="M94.4281 24.3931L96.138 16.795C96.1643 16.6895 96.2695 16.584 96.401 16.584H98.716C98.8475 16.584 98.9001 16.6895 98.8738 16.795L97.085 25.6858C97.0061 26.0551 97.1376 26.2926 97.5585 26.4245C98.5318 26.7938 101.005 26.5036 101.32 26.53C101.689 26.5828 101.583 26.9257 101.583 26.9257C101.583 26.9257 101.294 28.3504 101.215 28.5878C101.136 28.8516 100.899 28.7989 100.899 28.7989C100.899 28.7989 98.5055 28.878 95.8223 28.6669C93.1128 28.4559 94.4281 24.3931 94.4281 24.3931Z" fill="white"/>
<path d="M146.593 15.7135H147.04C147.251 15.7135 147.409 15.6871 147.461 15.608C147.54 15.5552 147.566 15.476 147.566 15.3705C147.566 15.3178 147.54 15.2386 147.514 15.1858C147.487 15.1331 147.435 15.1067 147.356 15.0803C147.277 15.0539 147.172 15.0539 146.988 15.0539H146.567L146.593 15.7135ZM146.225 16.9534L146.198 14.7637H146.988C147.251 14.7637 147.461 14.7637 147.566 14.8165C147.698 14.8429 147.777 14.922 147.856 15.0276C147.935 15.1331 147.961 15.2386 147.961 15.3441C147.961 15.5024 147.908 15.6343 147.777 15.7662C147.672 15.8982 147.514 15.9509 147.303 15.9773C147.382 16.0037 147.461 16.0565 147.487 16.0828C147.593 16.162 147.698 16.3203 147.829 16.5049L148.119 16.9271H147.672L147.461 16.5841C147.303 16.3203 147.172 16.1356 147.067 16.0828C146.988 16.0301 146.909 16.0037 146.777 16.0037H146.567L146.593 16.9271L146.225 16.9534ZM147.119 14.1042C146.83 14.1042 146.54 14.1833 146.251 14.3416C145.962 14.4999 145.751 14.711 145.593 14.9748C145.436 15.2386 145.357 15.5288 145.357 15.819C145.357 16.1092 145.436 16.3994 145.593 16.6632C145.751 16.9271 145.962 17.1381 146.251 17.2964C146.54 17.4547 146.83 17.5075 147.119 17.5075C147.435 17.5075 147.724 17.4283 147.987 17.27C148.277 17.1117 148.487 16.9007 148.619 16.6369C148.777 16.373 148.855 16.0828 148.829 15.7926C148.829 15.5024 148.75 15.2122 148.592 14.9484C148.435 14.6846 148.198 14.4735 147.935 14.3416C147.698 14.1833 147.409 14.1042 147.119 14.1042ZM147.119 13.7876C147.461 13.7876 147.829 13.8667 148.171 14.025C148.513 14.1833 148.777 14.4471 148.961 14.7637C149.145 15.0803 149.25 15.4233 149.25 15.7926C149.25 16.1356 149.171 16.4786 148.987 16.8215C148.803 17.1381 148.54 17.4019 148.224 17.5866C147.882 17.7713 147.54 17.8768 147.172 17.8768C146.804 17.8768 146.462 17.7977 146.12 17.613C145.778 17.4283 145.515 17.1909 145.33 16.8743C145.146 16.5577 145.041 16.2147 145.041 15.8718C145.041 15.5288 145.12 15.1858 145.304 14.8429C145.488 14.4999 145.751 14.2625 146.093 14.0778C146.409 13.8667 146.751 13.7876 147.119 13.7876Z" fill="white"/>
<path d="M144.042 38.4548L144.62 38.4284C144.62 38.6131 144.647 38.745 144.726 38.7977C144.804 38.9033 144.989 38.956 145.225 38.956C145.436 38.956 145.567 38.9296 145.646 38.8505C145.725 38.7714 145.778 38.6922 145.778 38.5867C145.778 38.5075 145.751 38.4284 145.673 38.3756C145.62 38.3229 145.488 38.2701 145.252 38.1646C145.015 38.059 144.857 37.9799 144.752 37.9271C144.647 37.848 144.568 37.7688 144.515 37.6633C144.462 37.5578 144.436 37.4259 144.436 37.294C144.436 37.0565 144.515 36.8455 144.699 36.6872C144.883 36.5289 145.146 36.4497 145.488 36.4497C145.83 36.4497 146.093 36.5289 146.304 36.6872C146.488 36.8455 146.593 37.0565 146.62 37.3467L146.041 37.3731C146.015 37.2412 145.962 37.1357 145.883 37.0565C145.804 36.9774 145.673 36.951 145.488 36.951C145.331 36.951 145.199 36.9774 145.12 37.0301C145.041 37.0829 145.015 37.1621 145.015 37.2412C145.015 37.3203 145.041 37.3995 145.12 37.4523C145.173 37.505 145.331 37.5842 145.567 37.6897C145.909 37.848 146.12 37.9535 146.225 38.059C146.357 38.191 146.435 38.3756 146.435 38.5867C146.435 38.8505 146.33 39.0616 146.12 39.2462C145.909 39.4309 145.62 39.5364 145.252 39.5364C144.989 39.5364 144.778 39.4837 144.594 39.4045C144.41 39.3254 144.278 39.1935 144.199 39.0616C144.068 38.8241 144.015 38.6658 144.042 38.4548ZM142.937 38.8505H143.515L143.41 39.4045H142.832L142.937 38.8505ZM141.674 38.2701L141.516 37.0829L140.806 38.2701H141.674ZM141.753 38.7714H140.595L140.253 39.4309H139.622L141.279 36.4497H141.963L142.437 39.4045H141.858L141.753 38.7714ZM138.807 38.8505H139.385L139.28 39.4045H138.701L138.807 38.8505ZM136.018 38.4548L136.597 38.4284C136.597 38.6131 136.623 38.745 136.702 38.7977C136.781 38.9033 136.965 38.956 137.202 38.956C137.412 38.956 137.544 38.9296 137.623 38.8505C137.702 38.7714 137.754 38.6922 137.754 38.5867C137.754 38.5075 137.728 38.4284 137.649 38.3756C137.597 38.3229 137.465 38.2701 137.228 38.1646C136.992 38.059 136.834 37.9799 136.728 37.9271C136.623 37.848 136.544 37.7688 136.492 37.6633C136.439 37.5578 136.413 37.4259 136.413 37.294C136.413 37.0565 136.492 36.8455 136.676 36.6872C136.86 36.5289 137.123 36.4497 137.465 36.4497C137.807 36.4497 138.07 36.5289 138.281 36.6872C138.465 36.8455 138.57 37.0565 138.596 37.3467L138.017 37.3731C137.991 37.2412 137.939 37.1357 137.86 37.0565C137.781 36.9774 137.649 36.951 137.465 36.951C137.307 36.951 137.176 36.9774 137.097 37.0301C137.018 37.0829 136.992 37.1621 136.992 37.2412C136.992 37.3203 137.018 37.3995 137.097 37.4523C137.149 37.505 137.307 37.5842 137.544 37.6897C137.886 37.848 138.096 37.9535 138.202 38.059C138.333 38.191 138.412 38.3756 138.412 38.5867C138.412 38.8505 138.307 39.0616 138.096 39.2462C137.886 39.4309 137.597 39.5364 137.228 39.5364C136.965 39.5364 136.755 39.4837 136.571 39.4045C136.386 39.3254 136.255 39.1935 136.176 39.0616C136.044 38.8241 136.018 38.6658 136.018 38.4548ZM132.125 38.4548L132.704 38.4284C132.704 38.6131 132.73 38.745 132.809 38.7977C132.888 38.9033 133.072 38.956 133.309 38.956C133.519 38.956 133.651 38.9296 133.73 38.8505C133.808 38.7714 133.861 38.6922 133.861 38.5867C133.861 38.5075 133.835 38.4284 133.756 38.3756C133.703 38.3229 133.572 38.2701 133.335 38.1646C133.098 38.059 132.94 37.9799 132.835 37.9271C132.73 37.848 132.651 37.7688 132.598 37.6633C132.546 37.5578 132.519 37.4259 132.519 37.294C132.519 37.0565 132.598 36.8455 132.783 36.6872C132.967 36.5289 133.23 36.4497 133.572 36.4497C133.914 36.4497 134.177 36.5289 134.387 36.6872C134.571 36.8455 134.677 37.0565 134.703 37.3467L134.124 37.3731C134.098 37.2412 134.045 37.1357 133.966 37.0565C133.887 36.9774 133.756 36.951 133.572 36.951C133.414 36.951 133.282 36.9774 133.203 37.0301C133.125 37.0829 133.098 37.1621 133.098 37.2412C133.098 37.3203 133.125 37.3995 133.203 37.4523C133.256 37.505 133.414 37.5842 133.651 37.6897C133.993 37.848 134.203 37.9535 134.308 38.059C134.44 38.191 134.519 38.3756 134.519 38.5867C134.519 38.8505 134.414 39.0616 134.203 39.2462C133.993 39.4309 133.703 39.5364 133.335 39.5364C133.072 39.5364 132.861 39.4837 132.677 39.4045C132.493 39.3254 132.362 39.1935 132.283 39.0616C132.151 38.8241 132.125 38.6658 132.125 38.4548ZM129.284 39.4045L129.889 36.4497H132.072L131.967 36.951H130.389L130.257 37.6105H131.783L131.678 38.1118H130.152L129.968 38.9033H131.678L131.572 39.4045H129.284ZM126.785 39.4045L127.39 36.4497H127.995L127.495 38.9033H128.994L128.889 39.4045H126.785ZM124.496 38.9296H125.075C125.312 38.9296 125.496 38.9033 125.575 38.8769C125.654 38.8505 125.732 38.7977 125.785 38.7186C125.838 38.6394 125.864 38.5603 125.864 38.4811C125.864 38.3756 125.838 38.2965 125.759 38.2437C125.68 38.1909 125.575 38.1382 125.39 38.1382H124.654L124.496 38.9296ZM124.759 37.6369H125.233C125.443 37.6369 125.601 37.6105 125.68 37.5842C125.759 37.5578 125.838 37.505 125.89 37.4259C125.943 37.3467 125.969 37.294 125.969 37.2148C125.969 37.1357 125.943 37.0829 125.917 37.0301C125.864 36.9774 125.811 36.951 125.732 36.9246C125.68 36.9246 125.575 36.9246 125.417 36.9246H124.943L124.759 37.6369ZM123.786 39.4045L124.391 36.4497H125.39C125.601 36.4497 125.759 36.4497 125.838 36.4761C125.996 36.5025 126.101 36.5289 126.206 36.608C126.311 36.6608 126.39 36.7399 126.443 36.8455C126.495 36.951 126.522 37.0565 126.522 37.1884C126.522 37.3467 126.469 37.505 126.39 37.6105C126.311 37.7425 126.153 37.8216 125.969 37.8744C126.127 37.9271 126.232 37.9799 126.311 38.0854C126.39 38.1909 126.443 38.3229 126.443 38.4548C126.443 38.6394 126.39 38.7977 126.285 38.956C126.18 39.1143 126.048 39.2198 125.864 39.299C125.68 39.3781 125.443 39.4045 125.127 39.4045H123.786ZM122.628 39.4045L123.233 36.4497H123.838L123.233 39.4045H122.628ZM120.392 39.4045H119.603L120.892 37.9007L120.156 36.4497H120.787L121.076 37.0038C121.076 37.0301 121.155 37.162 121.26 37.4259C121.26 37.4523 121.287 37.4523 121.287 37.4786C121.445 37.2676 121.576 37.1093 121.708 36.9774L122.181 36.4497H122.944L121.602 38.0063L122.339 39.4045H121.655L121.445 38.956C121.339 38.7186 121.26 38.5603 121.208 38.4548C121.155 38.5339 121.024 38.6922 120.813 38.956L120.392 39.4045ZM117.157 39.4045L117.762 36.4497H119.945L119.84 36.951H118.261L118.13 37.6105H119.656L119.55 38.1118H118.025L117.841 38.9033H119.55L119.445 39.4045H117.157ZM114.658 39.4045L115.263 36.4497H115.868L115.368 38.9033H116.867L116.762 39.4045H114.658ZM112.132 39.4045L112.737 36.4497H114.789L114.684 36.951H113.237L113.079 37.6633H114.5L114.394 38.1646H112.974L112.711 39.4309H112.132V39.4045ZM108.239 39.4045L108.844 36.4497H111.027L110.922 36.951H109.344L109.212 37.6105H110.738L110.633 38.1118H109.107L108.923 38.9033H110.633L110.527 39.4045H108.239ZM105.976 38.9296H106.292C106.503 38.9296 106.687 38.9033 106.766 38.8769C106.871 38.8505 106.95 38.7977 107.029 38.7186C107.16 38.6131 107.239 38.4548 107.318 38.2965C107.397 38.1118 107.45 37.9007 107.45 37.6633C107.45 37.4523 107.423 37.294 107.344 37.1884C107.265 37.0829 107.187 37.0038 107.081 36.9774C107.002 36.951 106.897 36.951 106.713 36.951H106.371L105.976 38.9296ZM105.266 39.4045L105.871 36.4497H106.66C106.871 36.4497 107.029 36.4497 107.081 36.4497C107.213 36.4497 107.318 36.4761 107.397 36.5289C107.502 36.5553 107.581 36.608 107.66 36.6872C107.739 36.7663 107.818 36.8455 107.871 36.9246C107.923 37.0301 107.976 37.1357 108.002 37.2412C108.028 37.3731 108.055 37.505 108.055 37.6369C108.055 37.9535 108.002 38.2437 107.871 38.4811C107.739 38.7186 107.607 38.9296 107.423 39.0616C107.292 39.1671 107.108 39.2462 106.871 39.299C106.739 39.3254 106.555 39.3518 106.292 39.3518H105.266V39.4045ZM103.162 38.2701L103.004 37.0829L102.294 38.2701H103.162ZM103.214 38.7714H102.057L101.715 39.4309H101.084L102.741 36.4761H103.425L103.898 39.4309H103.32L103.214 38.7714ZM100.689 39.4045H100.11L99.321 37.4259L98.9001 39.4045H98.3477L98.9527 36.4497H99.5315L100.321 38.4284L100.742 36.4497H101.294L100.689 39.4045ZM97.1902 38.2701L97.0324 37.0829L96.3221 38.2701H97.1902ZM97.2691 38.7714H96.1117L95.7697 39.4309H95.1383L96.7956 36.4761H97.4796L97.9531 39.4309H97.3744L97.2691 38.7714ZM94.165 39.4045L94.7701 36.4497H95.3751L94.7701 39.4045H94.165ZM91.929 38.9296H92.5077C92.7445 38.9296 92.9286 38.9033 93.0075 38.8769C93.0865 38.8505 93.1654 38.7977 93.218 38.7186C93.2706 38.6394 93.2969 38.5603 93.2969 38.4811C93.2969 38.3756 93.2706 38.2965 93.1917 38.2437C93.1128 38.1909 93.0075 38.1382 92.8234 38.1382H92.0868L91.929 38.9296ZM92.192 37.6369H92.6656C92.876 37.6369 93.0338 37.6105 93.1128 37.5842C93.1917 37.5578 93.2706 37.505 93.3232 37.4259C93.3758 37.3467 93.4021 37.294 93.4021 37.2148C93.4021 37.1357 93.3758 37.0829 93.3495 37.0301C93.2969 36.9774 93.2443 36.951 93.1654 36.9246C93.1128 36.9246 93.0075 36.9246 92.8497 36.9246H92.3499L92.192 37.6369ZM91.2187 39.4045L91.8238 36.4497H92.8234C93.0338 36.4497 93.1917 36.4497 93.2706 36.4761C93.4284 36.5025 93.5337 36.5289 93.6389 36.608C93.7441 36.6608 93.823 36.7399 93.8756 36.8455C93.9282 36.951 93.9546 37.0565 93.9546 37.1884C93.9546 37.3467 93.9019 37.505 93.823 37.6105C93.7441 37.7425 93.5863 37.8216 93.4021 37.8744C93.56 37.9271 93.6652 37.9799 93.7441 38.0854C93.823 38.1909 93.8756 38.3229 93.8756 38.4548C93.8756 38.6394 93.823 38.7977 93.7178 38.956C93.6126 39.1143 93.481 39.2198 93.2969 39.299C93.1128 39.3781 92.876 39.4045 92.5603 39.4045H91.2187ZM89.4825 39.4045H88.9301L88.8248 36.9246L88.3513 39.4045H87.7989L88.4039 36.4497H89.272L89.351 38.5339L90.3506 36.4497H91.2187L90.6137 39.4045H90.0612L90.64 36.951L89.4825 39.4045ZM85.3787 38.2437C85.3787 38.4548 85.4313 38.6131 85.5629 38.745C85.6944 38.8769 85.8522 38.956 86.0627 38.956C86.2205 38.956 86.3784 38.9033 86.5362 38.7977C86.694 38.6922 86.7993 38.5339 86.9045 38.2965C87.0097 38.0854 87.0623 37.8744 87.0623 37.6633C87.0623 37.4259 87.0097 37.2412 86.8782 37.1093C86.7467 36.9774 86.5888 36.8982 86.4047 36.8982C86.1153 36.8982 85.8786 37.0301 85.6944 37.3203C85.484 37.6105 85.3787 37.9007 85.3787 38.2437ZM84.7737 38.2437C84.7737 38.059 84.8 37.8744 84.8526 37.6897C84.9315 37.4259 85.0368 37.2148 85.1683 37.0038C85.2998 36.8191 85.484 36.6608 85.6944 36.5553C85.9049 36.4497 86.1416 36.397 86.431 36.397C86.7993 36.397 87.0886 36.5025 87.3254 36.7399C87.5621 36.9774 87.6674 37.2676 87.6674 37.6369C87.6674 37.9535 87.5885 38.2437 87.4569 38.5339C87.2991 38.8241 87.1149 39.0616 86.8519 39.2198C86.5888 39.3781 86.3258 39.4573 86.0101 39.4573C85.747 39.4573 85.5103 39.4045 85.3261 39.2726C85.142 39.1407 85.0104 38.9824 84.9315 38.7977C84.8263 38.6394 84.7737 38.4548 84.7737 38.2437ZM82.0905 39.4045L82.6955 36.4497H83.3005L82.8007 38.9033H84.3002L84.195 39.4045H82.0905ZM79.6703 38.2437C79.6703 38.4548 79.7229 38.6131 79.8544 38.745C79.986 38.8769 80.1438 38.956 80.3542 38.956C80.5121 38.956 80.6699 38.9033 80.8278 38.7977C80.9856 38.6922 81.0908 38.5339 81.196 38.2965C81.3013 38.0854 81.3539 37.8744 81.3539 37.6633C81.3539 37.4259 81.3013 37.2412 81.1697 37.1093C81.0382 36.9774 80.8804 36.8982 80.6962 36.8982C80.4069 36.8982 80.1701 37.0301 79.986 37.3203C79.7492 37.6105 79.6703 37.9007 79.6703 38.2437ZM79.0652 38.2437C79.0652 38.059 79.0915 37.8744 79.1442 37.6897C79.2231 37.4259 79.3283 37.2148 79.4598 37.0038C79.5914 36.8191 79.7755 36.6608 79.986 36.5553C80.1964 36.4497 80.4332 36.397 80.7225 36.397C81.0908 36.397 81.3802 36.5025 81.6169 36.7399C81.8537 36.9774 81.9589 37.2676 81.9589 37.6369C81.9589 37.9535 81.88 38.2437 81.7485 38.5339C81.5906 38.8241 81.4065 39.0616 81.1434 39.2198C80.8804 39.3781 80.6173 39.4573 80.3016 39.4573C80.0386 39.4573 79.8018 39.4045 79.6177 39.2726C79.4335 39.1407 79.302 38.9824 79.2231 38.7977C79.0915 38.6394 79.0652 38.4548 79.0652 38.2437ZM78.0393 38.3492L78.6443 38.4548C78.5128 38.7977 78.355 39.0352 78.1182 39.2198C77.8815 39.4045 77.5921 39.4837 77.2764 39.4837C76.9081 39.4837 76.6451 39.3781 76.4346 39.1671C76.2242 38.956 76.1189 38.6394 76.1189 38.2173C76.1189 37.8744 76.1979 37.5842 76.3294 37.294C76.4609 37.0038 76.6451 36.7927 76.9081 36.6608C77.1449 36.5025 77.4079 36.4497 77.6973 36.4497C78.013 36.4497 78.2761 36.5289 78.4602 36.7136C78.6443 36.8718 78.7759 37.1093 78.8022 37.4259L78.2234 37.4786C78.1971 37.294 78.1182 37.1884 78.0393 37.1093C77.9341 37.0301 77.8289 37.0038 77.671 37.0038C77.5132 37.0038 77.3553 37.0565 77.1975 37.162C77.0397 37.2676 76.9344 37.4259 76.8555 37.6369C76.7766 37.848 76.724 38.059 76.724 38.2965C76.724 38.5339 76.7766 38.7186 76.8818 38.8505C76.9871 38.9824 77.1449 39.0352 77.3027 39.0352C77.4606 39.0352 77.5921 38.9824 77.7236 38.8769C77.8815 38.6922 77.9604 38.5603 78.0393 38.3492ZM73.7777 38.2701L73.6199 37.0829L72.9096 38.2701H73.7777ZM73.8566 38.7714H72.6991L72.3572 39.4309H71.7258L73.3831 36.4761H74.0671L74.5406 39.4309H73.9618L73.8566 38.7714ZM70.7525 39.4045L71.3575 36.4497H71.9626L71.3575 39.4045H70.7525ZM68.7795 37.7425H69.0952C69.4109 37.7425 69.6476 37.7161 69.7528 37.6897C69.8581 37.6633 69.937 37.5842 70.0159 37.505C70.0685 37.4259 70.0948 37.3467 70.0948 37.2412C70.0948 37.1357 70.0422 37.0565 69.9633 37.0038C69.9107 36.9774 69.8055 36.951 69.6213 36.951H68.9374L68.7795 37.7425ZM68.4375 39.4045H67.8325L68.4375 36.4497H69.7528C69.9896 36.4497 70.1474 36.4761 70.279 36.5289C70.4105 36.5816 70.5157 36.6608 70.5946 36.7927C70.6736 36.9246 70.6999 37.0565 70.6999 37.2412C70.6999 37.505 70.621 37.6897 70.4631 37.8744C70.3053 38.0327 70.0948 38.1382 69.7792 38.191C69.8581 38.2701 69.937 38.3492 69.9896 38.4548C70.1211 38.6922 70.279 39.0088 70.4368 39.4309H69.7792C69.7265 39.2726 69.6213 39.0088 69.4635 38.6394C69.3846 38.4548 69.2793 38.3229 69.2004 38.2437C69.1478 38.2173 69.0426 38.191 68.911 38.191H68.6743L68.4375 39.4045ZM66.5698 39.4045H65.9647L66.4909 36.951H65.6228L65.728 36.4497H68.0429L67.9377 36.951H67.0959L66.5698 39.4045ZM62.6502 38.4548L63.2289 38.4284C63.2289 38.6131 63.2552 38.745 63.3341 38.7977C63.413 38.9033 63.5972 38.956 63.8339 38.956C64.0444 38.956 64.1759 38.9296 64.2548 38.8505C64.3338 38.7714 64.3864 38.6922 64.3864 38.5867C64.3864 38.5075 64.3601 38.4284 64.2812 38.3756C64.2285 38.3229 64.097 38.2701 63.8603 38.1646C63.6235 38.059 63.4657 37.9799 63.3604 37.9271C63.2552 37.848 63.1763 37.7688 63.1237 37.6633C63.0711 37.5578 63.0448 37.4259 63.0448 37.294C63.0448 37.0565 63.1237 36.8455 63.3078 36.6872C63.492 36.5289 63.755 36.4497 64.097 36.4497C64.439 36.4497 64.7021 36.5289 64.9125 36.6872C65.0966 36.8455 65.2019 37.0565 65.2282 37.3467L64.6494 37.3731C64.6231 37.2412 64.5705 37.1357 64.4916 37.0565C64.4127 36.9774 64.2812 36.951 64.097 36.951C63.9392 36.951 63.8076 36.9774 63.7287 37.0301C63.6498 37.0829 63.6235 37.1621 63.6235 37.2412C63.6235 37.3203 63.6498 37.3995 63.7287 37.4523C63.7813 37.505 63.9392 37.5842 64.1759 37.6897C64.5179 37.848 64.7284 37.9535 64.8336 38.059C64.9651 38.191 65.044 38.3756 65.044 38.5867C65.044 38.8505 64.9388 39.0616 64.7284 39.2462C64.5179 39.4309 64.2285 39.5364 63.8603 39.5364C63.5972 39.5364 63.3867 39.4837 63.2026 39.4045C63.0185 39.3254 62.8869 39.1935 62.808 39.0616C62.6765 38.8241 62.6502 38.6658 62.6502 38.4548ZM60.2037 36.4497H60.8087L60.4668 38.059L60.3878 38.4548C60.3878 38.4812 60.3878 38.5075 60.3878 38.5603C60.3878 38.6658 60.4404 38.7714 60.5194 38.8505C60.5983 38.9296 60.7298 38.956 60.8877 38.956C61.0455 38.956 61.1507 38.9296 61.2559 38.8769C61.3612 38.8241 61.4138 38.745 61.4664 38.6394C61.519 38.5339 61.5716 38.3492 61.6242 38.0854L61.9662 36.4761H62.5712L62.2293 38.0854C62.1503 38.4284 62.0714 38.6922 61.9925 38.8769C61.8873 39.0616 61.7558 39.1935 61.5716 39.3254C61.3875 39.4309 61.1507 39.4837 60.8613 39.4837C60.5194 39.4837 60.2563 39.4045 60.0722 39.2198C59.888 39.0616 59.8091 38.8241 59.8091 38.5603C59.8091 38.5075 59.8091 38.4548 59.8354 38.3756C59.8354 38.3229 59.8617 38.2173 59.9143 38.0063L60.2037 36.4497ZM57.31 38.9296H57.6257C57.8361 38.9296 58.0203 38.9033 58.0992 38.8769C58.2044 38.8505 58.2833 38.7977 58.3623 38.7186C58.4938 38.6131 58.5727 38.4548 58.6516 38.2965C58.7305 38.1118 58.7832 37.9007 58.7832 37.6633C58.7832 37.4523 58.7568 37.294 58.6779 37.1884C58.599 37.0829 58.5201 37.0038 58.4149 36.9774C58.3359 36.951 58.2307 36.951 58.0466 36.951H57.7046L57.31 38.9296ZM56.5997 39.4045L57.2048 36.4497H57.994C58.2044 36.4497 58.3623 36.4497 58.4149 36.4497C58.5464 36.4497 58.6516 36.4761 58.7305 36.5289C58.8358 36.5553 58.9147 36.608 58.9936 36.6872C59.0725 36.7663 59.1514 36.8455 59.2041 36.9246C59.2567 37.0301 59.3093 37.1357 59.3356 37.2412C59.3619 37.3731 59.3882 37.505 59.3882 37.6369C59.3882 37.9535 59.3356 38.2437 59.2041 38.4811C59.0725 38.7186 58.941 38.9296 58.7568 39.0616C58.6253 39.1671 58.4412 39.2462 58.2044 39.299C58.0729 39.3254 57.8887 39.3518 57.6257 39.3518H56.5997V39.4045ZM55.9947 39.4045H55.416L54.6268 37.4259L54.2059 39.4045H53.6534L54.2585 36.4497H54.8372L55.6264 38.4284L56.0473 36.4497H56.5997L55.9947 39.4045ZM52.4434 39.4045L53.0484 36.4497H53.6534L53.0484 39.4045H52.4434Z" fill="white"/>
</svg>
