<?xml version="1.0" encoding="UTF-8"?>
<!-- Generator: visioncortex VTracer -->
<svg id="svg" version="1.1" xmlns="http://www.w3.org/2000/svg" style="display: block;" viewBox="0 0 5020 2368"><path d="M0 0 C19.5025807 -0.01438183 39.00516127 -0.0258997 58.50774545 -0.03438493 C69.87962968 -0.03945931 81.25150369 -0.0472422 92.6233826 -0.05941607 C99.90320642 -0.06696288 107.18302628 -0.07101753 114.46285395 -0.07200827 C118.48167741 -0.07265753 122.50048239 -0.07480216 126.51930057 -0.08159223 C184.21384166 -0.17553708 184.21384166 -0.17553708 203.32088134 18.2055011 C221.7331691 37.83884808 233.87388633 63.26142236 234.08650634 90.53753235 C232.97342969 116.50932079 216.81450339 136.0598597 199.75838134 154.14690735 C197.64857224 156.40022011 195.61594602 158.67597299 193.62166259 161.02971985 C189.95589634 165.28092789 185.95261001 169.19077561 181.94026611 173.1117511 C179.15735769 175.85006843 176.50745377 178.63679542 173.97627685 181.61040832 C169.57623578 186.66059519 164.8520449 191.3615009 160.10408447 196.08245422 C159.11912423 197.06549083 158.13439471 198.04875866 157.14987609 199.03223755 C155.04409419 201.13487982 152.93677441 203.23596368 150.82822082 205.33582642 C147.48765806 208.66276285 144.15100577 211.99360318 140.8148999 215.32500793 C133.13153392 222.99637798 125.44314336 230.66270577 117.75469634 238.32898285 C110.70285877 245.36059056 103.65211155 252.39328267 96.60541818 259.4300461 C93.29540186 262.73510898 89.98297003 266.03772512 86.66860626 269.33842804 C84.60061381 271.39891147 82.53473995 273.46150933 80.46940849 275.52465965 C79.06863019 276.92270222 77.66533341 278.31821999 76.26193664 279.71363403 C71.85813864 284.11706651 67.58823075 288.57319515 63.53950164 293.30659821 C60.65883828 296.65970396 57.61284512 299.86387307 54.59822509 303.0961261 C51.89611975 306.00553582 49.24858298 308.94997664 46.64900634 311.95159485 C14.20590835 349.15135423 -25.14964307 363.60533501 -73.94083741 367.02971985 C-77.33212501 367.22950675 -80.72435038 367.39315931 -84.1180835 367.54534485 C-85.06845679 367.58800476 -86.01883008 367.63066467 -86.99800256 367.67461731 C-97.61380603 368.12999361 -108.23155424 368.34241032 -118.85489991 368.52971985 C-121.07254368 368.57059602 -123.2901848 368.61161618 -125.50782349 368.65276672 C-130.18240088 368.7387701 -134.85701198 368.82251886 -139.53165772 368.90471985 C-144.08152692 368.98490617 -148.63132213 369.06801763 -153.18107178 369.15471985 C-236.53085547 370.74191078 -319.89581189 371.16187043 -403.25839236 371.46144714 C-419.75673321 371.52081143 -436.25503763 371.58735315 -452.75333741 371.65716125 C-454.02784013 371.66254921 -455.30234285 371.66793717 -456.61546686 371.6734884 C-464.27310824 371.7059074 -471.93074859 371.73856233 -479.58838847 371.77133467 C-483.36023813 371.78747163 -487.13208796 371.80357 -490.90393784 371.81965591 C-505.42708729 371.88160512 -505.42708729 371.88160512 -519.95023492 371.94397881 C-530.51344426 371.98948987 -541.07665437 372.0346449 -551.63987305 372.07793762 C-568.99238317 372.14936406 -586.34480452 372.22585461 -603.69712689 372.33460953 C-610.11582381 372.37470237 -616.53447237 372.41049122 -622.95325806 372.4332843 C-656.58243716 372.29814352 -656.58243716 372.29814352 -689.94083741 376.02971985 C-690.89716065 376.19516296 -691.85348389 376.36060608 -692.83878663 376.53106262 C-698.69142019 377.55802965 -704.51880213 378.68400087 -710.33878663 379.88152649 C-713.23107414 380.47548281 -716.12657475 381.05135433 -719.02286866 381.62542297 C-732.2612339 384.28216156 -745.12267577 386.97394097 -757.06583741 393.52971985 C-757.86513673 393.96058899 -758.66443604 394.39145813 -759.48795655 394.83538391 C-780.87029167 406.53992733 -801.03191602 420.67815867 -819.94083741 436.02971985 C-820.87927491 436.78639954 -821.81771241 437.54307922 -822.78458741 438.3226886 C-832.61969695 446.30664964 -842.30118553 454.46568819 -851.67911866 462.98284485 C-853.74757616 464.85481675 -855.83644655 466.69835375 -857.94083741 468.52971985 C-863.73411614 473.58293902 -869.46299483 478.70829036 -875.08146241 483.9555011 C-880.89641466 489.38325288 -886.75241928 494.66648534 -892.96818116 499.63909485 C-895.15293613 501.3960857 -897.3048511 503.17292222 -899.44474366 504.98284485 C-914.73811633 517.82408236 -931.34199021 528.62621682 -948.94083741 538.02971985 C-949.77872803 538.51827454 -950.61661866 539.00682922 -951.47989991 539.5101886 C-1006.00474699 569.95791248 -1105.89835102 554.95762137 -1166.71748688 556.02874329 C-1170.1880855 556.08996625 -1173.65866969 556.15195868 -1177.12925294 556.21404602 C-1258.0571406 557.6518685 -1338.99126323 558.24095329 -1419.93026974 558.57728865 C-1423.53489033 558.5923517 -1427.13950966 558.60768704 -1430.74412873 558.62310745 C-1505.67813844 558.94332605 -1580.61228556 559.15823893 -1655.54698297 559.20837506 C-1663.90077916 559.2143403 -1672.25456019 559.22517627 -1680.6083484 559.23800232 C-1690.74162592 559.25335773 -1700.87487659 559.26125365 -1711.00816616 559.25947 C-1716.16324739 559.25867291 -1721.31827688 559.26087208 -1726.47334817 559.27159073 C-1731.19348896 559.28124266 -1735.91353455 559.28141522 -1740.63367882 559.27419319 C-1742.33409155 559.27317939 -1744.03451046 559.27549478 -1745.73491254 559.28159871 C-1772.06826045 559.37008847 -1787.39920101 551.39173326 -1806.42472413 533.44866516 C-1807.91789946 532.0511877 -1809.42711906 530.6740107 -1810.94474366 529.30315735 C-1816.70155793 524.09943222 -1822.26492368 518.75522539 -1827.71769288 513.23357727 C-1831.00340932 509.92131943 -1834.39734615 506.8239759 -1837.94864991 503.80315735 C-1840.38021722 501.63858567 -1842.65294822 499.34542532 -1844.94083741 497.02971985 C-1848.36390532 493.57040159 -1851.85042344 490.30054239 -1855.54630616 487.13909485 C-1858.91194018 484.17426227 -1862.17049495 481.09890871 -1865.44083741 478.02971985 C-1871.00142273 472.82064247 -1876.60923777 467.70714201 -1882.41837647 462.77532532 C-1889.56262526 456.70798246 -1896.60502933 450.57004526 -1903.46476319 444.18157532 C-1906.27443986 441.56525274 -1909.10109417 438.98050265 -1912.00333741 436.46721985 C-1917.42283315 431.77334697 -1922.66979797 426.88860715 -1927.94083741 422.02971985 C-1928.98508237 421.06875423 -1930.02935317 420.1078167 -1931.07364991 419.14690735 C-1943.65509985 407.5606223 -1956.13421719 395.86536117 -1968.58146241 384.1351886 C-1971.56746397 381.32145636 -1974.55743209 378.51202188 -1977.55021241 375.7055011 C-1978.3064087 374.99571106 -1979.06260499 374.28592102 -1979.84171632 373.55462219 C-1981.27545886 372.2090131 -1982.70997119 370.86422351 -1984.14542725 369.5204425 C-1987.37705168 366.4853947 -1990.56702498 363.4220041 -1993.69083741 360.2758136 C-1995.9886505 357.96208408 -1998.31724529 355.75353723 -2000.81583741 353.65471985 C-2003.82551271 351.0633778 -2006.65172357 348.35717202 -2009.44083741 345.52971985 C-2012.16913148 342.76411577 -2014.92600575 340.11684954 -2017.87833741 337.59221985 C-2021.97002282 334.086223 -2025.71050624 330.27510094 -2029.49552491 326.44378235 C-2032.2320722 323.74220691 -2035.09063107 321.2389325 -2038.01114991 318.74065735 C-2040.07392262 316.91172122 -2042.00674461 314.99391526 -2043.94083741 313.02971985 C-2047.02329246 309.90561 -2050.21593513 307.00270896 -2053.54239991 304.1430011 C-2056.73230694 301.33235011 -2059.83339632 298.43092571 -2062.94083741 295.52971985 C-2067.86701164 290.93874721 -2072.82424617 286.40878442 -2077.94083741 282.02971985 C-2078.98652742 281.13011635 -2080.0320881 280.23036252 -2081.07755616 279.3305011 C-2084.09386267 276.73688328 -2087.11635634 274.15059519 -2090.141521 271.5673175 C-2091.30166001 270.57592599 -2092.46090836 269.58349081 -2093.61906007 268.58977844 C-2099.01407445 263.96107365 -2104.42717245 259.39228034 -2110.06681397 255.06292297 C-2124.80996974 243.71950106 -2137.69904408 230.38265744 -2150.75431397 217.17986633 C-2156.30655806 211.57610252 -2161.91545808 206.12907664 -2167.94083741 201.02971985 C-2169.61136202 199.53401758 -2171.27864573 198.03467718 -2172.94083741 196.52971985 C-2175.92146462 193.83988554 -2178.91328974 191.16661621 -2181.94083741 188.52971985 C-2198.02834341 174.50141462 -2214.09162363 160.12519934 -2229.05118897 144.88836243 C-2230.86571204 143.10361254 -2232.73382525 141.43458197 -2234.66349366 139.7758136 C-2239.54997907 135.52818737 -2244.24116095 131.08703055 -2248.94083741 126.6351886 C-2253.51424822 122.32081864 -2258.17952142 118.13558195 -2262.94083741 114.02971985 C-2263.47612061 113.56694641 -2264.01140382 113.10417297 -2264.56290772 112.6273761 C-2270.55682869 107.46648229 -2276.6314656 102.44312311 -2282.87833741 97.59221985 C-2292.86054229 89.83075639 -2302.36477141 81.52612902 -2311.72599366 73.02971985 C-2313.71496243 71.23368456 -2315.72646935 69.47018682 -2317.75333741 67.71721985 C-2323.02253582 63.1251875 -2328.1242528 58.34926939 -2333.2484546 53.59710266 C-2334.86458372 52.10034141 -2336.48393959 50.60718353 -2338.10489991 49.11565735 C-2346.17813304 41.68622471 -2354.21893473 34.22230071 -2362.18888428 26.6820636 C-2363.6764212 25.27910236 -2365.17468553 23.88752902 -2366.67521241 22.49846985 C-2372.42304765 17.0281163 -2376.99379774 10.92359567 -2380.94083741 4.02971985 C-2380.94083741 3.36971985 -2380.94083741 2.70971985 -2380.94083741 2.02971985 C-2297.51264133 1.86194681 -2214.08442346 1.70656173 -1346.42376179 0.71536176 C-1342.89772641 0.71331352 -1339.37169104 0.71126204 -1335.84565567 0.70920971 C-1218.84953686 0.6411304 -1101.85341512 0.5790411 -984.85729159 0.51967749 C-911.22034421 0.48231095 -837.58339811 0.44298699 -763.94645264 0.4020343 C-761.47080215 0.40065796 -758.99515166 0.39928166 -756.51950117 0.39790542 C-736.77548638 0.38692881 -717.0314716 0.37594445 -697.28745683 0.36494593 C-608.06515144 0.31524541 -518.84284534 0.26685516 -429.62053904 0.21882046 C-421.69312238 0.21455174 -413.76570573 0.21027429 -405.83828908 0.20599257 C-375.05743388 0.18936934 -344.27657863 0.17285484 -313.49572327 0.15653564 C-312.43790005 0.15597451 -311.38007683 0.15541338 -310.29019836 0.15483524 C-262.78767175 0.12964331 -215.28514496 0.1053815 -167.78261616 0.08467342 C-166.84429075 0.08426382 -165.90596533 0.08385422 -164.9392058 0.0834322 C-147.53176115 0.07583704 -130.12431646 0.0683329 -112.71687164 0.06113147 C-102.35616436 0.05684522 -91.99545712 0.05249933 -81.63474992 0.04804184 C-80.3889964 0.04750636 -80.3889964 0.04750636 -79.11807616 0.04696007 C-52.74538051 0.03557597 -26.37269081 0.01948673 0 0 Z " transform="translate(3751.9408374093473,2.9702801518142223)" style="fill: #B467E2;"/><path d="M0 0 C7.40789101 -0.02754396 14.81578148 -0.04842575 22.22370581 -0.06466602 C26.56780885 -0.07456773 30.91183134 -0.08793927 35.25588825 -0.11055719 C78.38991464 -0.33014326 109.04256503 4.38529783 140.65961649 35.56302417 C146.75449609 41.64512857 152.75456741 47.75551911 158.37494852 54.28201831 C160.45574944 56.69103387 162.6161681 59.02328669 164.77607157 61.36136401 C169.69832391 66.76020357 174.3196768 72.36050084 178.90107157 78.04886401 C180.39951002 79.88347387 181.89951328 81.71680675 183.40107157 83.54886401 C185.63105197 86.2726809 187.85943144 88.99767202 190.08075907 91.72855151 C198.94215606 102.60820262 207.96822634 113.26976094 217.51728251 123.5517937 C218.92717276 125.07710193 220.32576176 126.61205914 221.72138407 128.15042651 C229.69972203 136.93864261 237.87225442 145.33360387 246.90107157 153.04886401 C247.93048889 153.95293424 248.95906623 154.85796139 249.98700907 155.76370776 C305.66322123 204.58131403 374.38957895 215.72504632 446.1452122 211.84671558 C496.7733165 208.25366586 543.88937401 185.713531 582.90107157 154.04886401 C584.38993876 152.86550464 584.38993876 152.86550464 585.90888407 151.65823901 C598.99614555 141.06280534 610.97424181 128.8402878 621.90107157 116.04886401 C622.77852571 115.03961897 623.65611864 114.03049457 624.53388407 113.02152026 C630.79790675 105.70694832 636.70604569 98.17518657 642.51825907 90.49808276 C645.33983887 86.77336817 648.2061681 83.08613306 651.08808329 79.40799487 C656.53745977 72.45300963 661.87063536 65.42930499 667.08857157 58.29886401 C672.43703408 50.99852643 677.84545926 43.76632234 683.54023173 36.7314812 C684.46944046 35.58255645 685.39337698 34.42935275 686.31269266 33.27249683 C693.59655768 24.14364875 701.39689959 16.83755829 710.90107157 10.04886401 C711.87689188 9.32312183 712.8527122 8.59737964 713.85810282 7.84964526 C717.33977967 5.78924343 720.24049903 5.07511433 724.21357157 4.36136401 C725.44720438 4.13062183 726.6808372 3.89987964 727.95185282 3.66214526 C738.03632068 2.0961102 747.94037847 1.83363137 758.11982157 1.73245776 C759.95509944 1.71146778 761.79037568 1.6903339 763.62565043 1.66907275 C769.88404819 1.59938169 776.14254068 1.54257715 782.40107157 1.48636401 C784.03339102 1.47107465 784.03339102 1.47107465 785.69868662 1.45547641 C838.43707555 0.96203688 891.17811921 0.90712709 943.91844537 0.87020881 C951.98028895 0.86420698 960.04211698 0.85333148 968.10395243 0.84058154 C978.07618394 0.82506086 988.04838799 0.81734978 998.02063193 0.81911386 C1003.20087 0.81991652 1008.38105672 0.81763134 1013.56128504 0.80699313 C1018.37380702 0.79730066 1023.18623573 0.79719857 1027.9987612 0.80439068 C1029.74573823 0.80540582 1031.49272125 0.80308067 1033.23968794 0.79698516 C1046.18578339 0.75477028 1058.92434827 0.78667179 1070.71357157 6.79886401 C1071.44076395 7.15883472 1072.16795634 7.51880542 1072.91718485 7.88968433 C1091.6052764 17.34529451 1105.16264851 35.3974796 1111.90107157 55.04886401 C1112.15759501 55.79265308 1112.41411845 56.53644214 1112.67841532 57.30277026 C1116.90921448 72.31795945 1110.61731411 86.61619089 1103.46357157 99.54886401 C1102.94424052 100.49302173 1102.42490946 101.43717944 1101.8898411 102.409948 C1093.82118061 116.81654734 1084.16474131 130.13936937 1073.90107157 143.04886401 C1073.23849345 143.89319995 1072.57591532 144.73753589 1071.89325907 145.60745776 C1066.39644033 152.56193491 1060.65403398 159.30669586 1054.90107157 166.04886401 C1054.39994852 166.63780444 1053.89882548 167.22674487 1053.38251688 167.83353198 C1048.39312923 173.69677616 1043.39512446 179.54116153 1038.21357157 185.23636401 C1035.18394289 188.57113516 1032.29499065 191.9817404 1029.46357157 195.48636401 C1026.38770569 199.28973904 1023.21353991 202.94969053 1019.90107157 206.54886401 C1015.00601029 211.8751749 1010.43928137 217.41827097 1005.90107157 223.04886401 C1004.44356387 224.82037696 1002.98522235 226.59120419 1001.52607157 228.36136401 C996.70144584 234.2581288 992.00123258 240.24895182 987.30829813 246.25052417 C984.55225109 249.77256486 981.78646013 253.28695786 979.02216532 256.80252612 C976.75124458 259.69143645 974.48310207 262.58242905 972.22138407 265.47855151 C966.20278768 273.17693412 960.07967432 280.78379214 953.90497782 288.35745776 C951.46990978 291.3452946 949.05369744 294.34733434 946.65107157 297.36136401 C943.28178052 301.58523616 939.86537995 305.76873695 936.44013407 309.94730151 C931.23845574 316.29659233 926.06497965 322.66883486 920.90107157 329.04886401 C920.39140848 329.67840991 919.8817454 330.30795581 919.35663798 330.95657886 C913.08663478 338.71389465 906.94063604 346.5549993 900.90375712 354.49515308 C897.47447946 359.00351691 894.00781895 363.47986152 890.51386454 367.93826831 C885.85008232 373.89164261 881.24778241 379.8592126 876.90107157 386.04886401 C871.3979873 393.88378304 865.49071601 401.39506587 859.57343485 408.91946948 C858.0611507 410.84503771 856.55564249 412.7756032 855.05341532 414.70902026 C841.05924895 432.6862006 826.25553165 450.00234879 811.41718485 467.28275073 C808.91006172 470.20328677 806.40569829 473.12618713 803.90107157 476.04886401 C802.90108498 477.21554217 801.90108497 478.38220884 800.90107157 479.54886401 C800.40607157 480.12636401 799.91107157 480.70386401 799.40107157 481.29886401 C797.90107157 483.04886401 796.40107157 484.79886401 794.90107157 486.54886401 C794.15808817 487.41583911 794.15808817 487.41583911 793.40009501 488.30032886 C792.40377936 489.46248076 791.40703705 490.62426702 790.40986063 491.78568042 C787.84980086 494.76851004 785.29832182 497.7580643 782.76044657 500.75980151 C777.91999827 506.47160609 773.07617314 512.04412641 767.69404032 517.25980151 C765.83175019 519.11803437 764.11514778 521.05360227 762.40107157 523.04886401 C757.10222562 529.18879662 751.35709344 534.81893332 745.19404032 540.08792651 C743.49271638 541.5428918 741.81069231 543.0204891 740.13935282 544.50980151 C683.73941427 594.29795983 611.98532785 600.22864414 540.48232796 600.45353044 C536.81007234 600.46662055 533.13786456 600.48661999 529.46564021 600.50647522 C518.16503874 600.56756115 506.86441012 600.61122788 495.563715 600.65056384 C488.98039596 600.67360281 482.39709452 600.70031229 475.8137913 600.72745288 C439.97155423 600.87359213 404.12922946 600.96688016 368.28678968 601.04373205 C365.85859848 601.04895538 363.43040741 601.05423292 361.00221636 601.05952419 C315.3817676 601.15879954 269.76133455 601.23457572 224.14078905 601.27026332 C223.21768314 601.27098789 222.29457722 601.27171245 221.34349839 601.27245897 C219.9592414 601.27354417 219.9592414 601.27354417 218.54701962 601.2746513 C217.16326396 601.27573665 217.16326396 601.27573665 215.75155363 601.27684393 C213.88978324 601.27829905 212.02801284 601.27974192 210.16624243 601.28117251 C196.22841303 601.29202007 182.29060807 601.31052089 168.35279276 601.3328606 C152.32338744 601.35846588 136.29401364 601.37273775 120.26458707 601.37280298 C111.97348041 601.37309458 103.68244366 601.37804865 95.39135554 601.39644779 C88.43805356 601.41187046 81.48483954 601.4169746 74.53152356 601.40881865 C71.02015801 601.40499777 67.50897012 601.40567874 63.99762752 601.41994942 C34.25325907 601.5202633 6.74308914 598.49433022 -20.09892843 585.04886401 C-20.78052023 584.70871265 -21.46211202 584.36856128 -22.16435812 584.0181023 C-37.02057383 576.46074751 -50.23093719 566.50967256 -61.74345968 554.47464526 C-63.86008253 552.29483965 -66.02888233 550.31904101 -68.34892843 548.36136401 C-71.70396531 545.4983081 -74.53463831 542.37750542 -77.38408468 539.01761401 C-79.05063199 537.10431141 -80.78720034 535.32427684 -82.59892843 533.54886401 C-86.31088547 529.88618074 -89.71505498 526.01434072 -93.09892843 522.04886401 C-93.92392843 521.08980151 -94.74892843 520.13073901 -95.59892843 519.14261401 C-107.3011393 505.48052068 -118.11408369 491.14206919 -128.99199484 476.82181323 C-132.4823801 472.22809413 -135.97787175 467.63826764 -139.47392843 463.04886401 C-140.14681905 462.16545337 -140.81970968 461.28204273 -141.51299093 460.37186206 C-145.87101666 454.65303201 -150.24562112 448.94749912 -154.63408468 443.25198901 C-159.20209009 437.32048342 -163.74427366 431.3691718 -168.28789327 425.4189812 C-170.18800374 422.93229039 -172.09072673 420.44761111 -173.99345968 417.96292651 C-181.01879114 408.7779245 -187.97084817 399.54797084 -194.80522726 390.22000659 C-199.87866912 383.3109548 -205.06576507 376.491936 -210.27202413 369.68265308 C-214.30426953 364.40817251 -218.31226421 359.11723083 -222.28642843 353.79886401 C-230.98763155 342.16188911 -239.85468136 330.65084375 -248.72002218 319.13870776 C-250.29704822 317.09038659 -251.87258702 315.04091946 -253.44658468 312.99027026 C-260.01846067 304.43080251 -266.64112285 295.9113731 -273.27129171 287.39700855 C-275.08879441 285.06188419 -276.90468631 282.72551691 -278.72002218 280.38870776 C-283.99729636 273.59634054 -289.2786574 266.80762957 -294.59892843 260.04886401 C-300.53166862 252.51202993 -306.41614761 244.93788531 -312.30058859 237.36331714 C-315.23192206 233.59070768 -318.16552041 229.81986046 -321.09892843 226.04886401 C-322.26560637 224.54887278 -323.43227303 223.04887277 -324.59892843 221.54886401 C-325.46517843 220.43511401 -325.46517843 220.43511401 -326.34892843 219.29886401 C-328.09892843 217.04886401 -329.84892843 214.79886401 -331.59892843 212.54886401 C-332.17675069 211.80596118 -332.75457296 211.06305835 -333.34990499 210.29764331 C-334.51336155 208.8017474 -335.67677321 207.30581656 -336.84013937 205.80985034 C-339.80554841 201.99676625 -342.77180105 198.18434338 -345.73955343 194.37308276 C-351.67876407 186.7442691 -357.6012881 179.10379759 -363.48955343 171.43558276 C-366.59454083 167.39934134 -369.72172456 163.38040169 -372.84892843 159.36136401 C-373.44262228 158.59807788 -374.03631612 157.83479175 -374.64800069 157.04837573 C-377.62038349 153.22839784 -380.59651627 149.4114318 -383.57939718 145.59964526 C-391.59280618 135.34846122 -399.45967535 124.9964714 -407.22441671 114.55569995 C-409.09410869 112.05530959 -410.98311373 109.57058024 -412.87627218 107.08792651 C-427.4080429 87.91036078 -437.26032827 69.94535482 -434.59892843 45.17386401 C-433.36230777 38.53214641 -430.43812213 34.12365437 -426.09892843 29.04886401 C-425.39123312 28.21612964 -424.6835378 27.38339526 -423.95439718 26.52542651 C-421.71989507 23.98177263 -419.41678243 21.5165113 -417.09892843 19.04886401 C-416.42345968 18.26253589 -415.74799093 17.47620776 -415.05205343 16.66605151 C-406.02527288 6.65514827 -393.19345515 1.63327581 -379.85353825 0.86097563 C-376.04369001 0.78117253 -372.23645087 0.76446051 -368.42604635 0.77039111 C-366.95237678 0.76538023 -365.47870996 0.75950213 -364.00504694 0.75283838 C-359.9748946 0.73710545 -355.94481211 0.73361121 -351.91463277 0.73218978 C-347.5560262 0.72848135 -343.19745729 0.71331325 -338.83887289 0.69957507 C-331.27577042 0.67730529 -323.71268143 0.66228598 -316.14955328 0.65220798 C-305.12757149 0.63751979 -294.10563538 0.6119378 -283.0836805 0.58387669 C-265.08421821 0.5383613 -247.08474915 0.50180322 -229.08525655 0.47073901 C-211.80301677 0.44089563 -194.52079539 0.40661711 -177.23857687 0.36624683 C-175.65706405 0.3625545 -175.65706405 0.3625545 -174.04360148 0.35878759 C-169.79937612 0.34886168 -165.55515083 0.33890772 -161.31092563 0.32891563 C-133.92930703 0.26452309 -106.54767729 0.20424913 -79.16603658 0.15002979 C-78.23303867 0.14818069 -77.30004075 0.14633159 -76.33877017 0.14442646 C-66.2599294 0.1246455 -56.18109052 0.1071359 -46.10223768 0.09482921 C-44.77659853 0.09319261 -44.77659853 0.09319261 -43.42417879 0.09152295 C-39.87562701 0.08716187 -36.32707524 0.08280088 -32.77852314 0.07870498 C-21.85228209 0.06580368 -10.92617354 0.04085321 0 0 Z " transform="translate(2058.0989284291863,1764.9511359855533)" style="fill: #6589E9;"/><path d="M0 0 C5.37650469 -0.06522101 10.75275932 -0.11412861 16.12960815 -0.13879395 C17.73369162 -0.14679218 19.33776387 -0.15775703 20.94180298 -0.17211914 C29.07905751 -0.23821273 37.08541907 -0.00974568 45.17596436 0.91534424 C45.85139282 0.99202835 46.52682129 1.06871246 47.22271729 1.14772034 C68.97136434 3.9104291 88.30557083 15.00098826 101.92205811 32.06768799 C102.63748779 33.04737549 103.35291748 34.02706299 104.09002686 35.03643799 C104.80569824 36.01362793 104.80569824 36.01362793 105.53582764 37.01055908 C109.46889568 42.60604518 112.02836784 48.24427257 114.34002686 54.66143799 C114.67776123 55.56378174 115.01549561 56.46612549 115.36346436 57.39581299 C118.30391075 65.33733356 120.46217124 72.40597365 120.40252686 80.91143799 C120.39624268 82.15002563 120.39624268 82.15002563 120.38983154 83.41363525 C120.0632936 101.60075674 114.71754357 117.50586055 106.46502686 133.59893799 C105.83427357 134.84272102 105.20407275 136.08678437 104.57440186 137.33111572 C99.94281951 146.46161186 95.19085228 155.52768026 90.39471436 164.5725708 C80.63127329 183.01056616 71.24063434 201.63022569 61.90252686 220.28643799 C61.07603638 221.93553665 61.07603638 221.93553665 60.23284912 223.61795044 C50.33501919 243.37697759 40.7594524 263.2773705 31.39736938 283.29510498 C18.16277801 311.5620539 4.40436103 339.55936003 -9.62896729 367.43780518 C-15.31705117 378.75232143 -20.85636318 390.12836608 -26.29815674 401.56329346 C-28.658602 406.52021768 -31.05177973 411.46032418 -33.46466064 416.39190674 C-33.82039658 417.11925522 -34.17613251 417.8466037 -34.54264832 418.59599304 C-35.25761302 420.05748191 -35.97267544 421.51892297 -36.68783569 422.98031616 C-42.92804944 435.74141527 -49.06908574 448.53777574 -55.01153564 461.44073486 C-59.01311557 470.12745638 -63.0913819 478.77542898 -67.19064331 487.41638184 C-73.30287052 500.30491605 -79.3165016 513.23159187 -85.19165039 526.22988892 C-90.52647551 538.03222226 -95.95206565 549.79054728 -101.40997314 561.53643799 C-107.45564404 574.55030661 -113.45679341 587.58229694 -119.37484741 600.6546936 C-122.97807599 608.61282128 -126.60472505 616.55919074 -130.27716064 624.48565674 C-130.65088303 625.29238327 -131.02460541 626.0991098 -131.40965271 626.93028259 C-132.93635591 630.22522248 -134.46323043 633.52008285 -135.99057007 636.81472778 C-141.2336625 648.13311167 -146.35961576 659.49708379 -151.39016724 670.91143799 C-184.32340883 745.59047306 -184.32340883 745.59047306 -218.64825439 759.67315674 C-252.44401353 771.55698756 -298.99202742 772.20924857 -331.78497314 756.78643799 C-348.22684341 748.71811101 -360.65745475 738.96494387 -370.65997314 723.47393799 C-371.45152032 722.26435901 -372.24310626 721.0548054 -373.034729 719.84527588 C-392.49361263 689.92702828 -407.61926732 657.536384 -422.2039032 625.03744507 C-425.39987921 617.92572177 -428.67327868 610.85078157 -431.97247314 603.78643799 C-432.25872559 603.17335785 -432.54497803 602.56027771 -432.83990479 601.92861938 C-438.32234492 590.20029037 -443.94195008 578.53944984 -449.59356689 566.89190674 C-452.18786034 561.5422534 -454.7458609 556.17649286 -457.28936768 550.80255127 C-462.12046014 540.61199249 -467.17162172 530.57558875 -472.51300049 520.64337158 C-474.04916163 517.77669408 -475.56757561 514.90095816 -477.08575439 512.02471924 C-487.70080165 492.0032385 -499.21263156 472.57760064 -511.09747314 453.28643799 C-511.61382324 452.4475 -512.13017334 451.60856201 -512.66217041 450.74420166 C-515.5827518 446.04281326 -518.64273612 441.50425022 -521.90997314 437.03643799 C-529.89416357 437.62173736 -536.01317101 438.71174051 -541.72247314 444.78643799 C-550.49385002 455.26806402 -557.36536108 467.14520307 -563.86602783 479.12042236 C-564.82816065 480.8862826 -565.80960252 482.64158584 -566.79278564 484.39581299 C-571.66311796 493.2398474 -575.86382934 502.3502791 -580.0725708 511.52423096 C-585.70257291 523.74600195 -591.61317652 535.82895946 -597.53497314 547.91143799 C-598.01580353 548.89338135 -598.49663391 549.87532471 -598.99203491 550.88702393 C-604.21097773 561.54047918 -609.46883959 572.1733215 -614.78497314 582.77862549 C-618.36124504 589.91319846 -621.886383 597.06515032 -625.28497314 604.28643799 C-629.22378648 612.58957151 -633.28068409 620.8264612 -637.40997314 629.03643799 C-641.51838538 637.20496372 -645.55098957 645.40153353 -649.47247314 653.66143799 C-692.12246555 743.19315613 -692.12246555 743.19315613 -737.6494751 759.73052979 C-745.58740266 762.44980578 -753.58645849 764.01895409 -761.90997314 765.03643799 C-762.96293579 765.17674438 -762.96293579 765.17674438 -764.03717041 765.31988525 C-771.5002923 766.20571341 -778.97234039 766.22255988 -786.47662354 766.22174072 C-788.70785723 766.22392369 -790.93859222 766.2421331 -793.16973877 766.26104736 C-805.49388811 766.31194784 -817.0638627 765.18017962 -828.72247314 760.91143799 C-829.57067627 760.60431885 -830.41887939 760.29719971 -831.29278564 759.98077393 C-845.41228958 754.73623555 -856.31561186 748.79353907 -866.90997314 738.03643799 C-867.90577393 737.14505127 -867.90577393 737.14505127 -868.92169189 736.23565674 C-885.99284284 720.77571555 -894.67086074 692.50534121 -904.06329346 672.05499268 C-905.70119748 668.48879178 -907.34459621 664.92514568 -908.9889679 661.36192322 C-919.66601633 638.22285944 -930.15685532 615.00602215 -940.49200439 591.71221924 C-951.85525655 566.10339084 -963.31085601 540.53935964 -974.90997314 515.03643799 C-975.25697266 514.27325256 -975.60397217 513.51006714 -975.96148682 512.72375488 C-995.38769143 470.00531339 -1015.05106638 427.38454407 -1035.53497314 385.16143799 C-1035.88767273 384.43439667 -1036.24037231 383.70735535 -1036.60375977 382.95828247 C-1040.29790573 375.35258183 -1044.02671712 367.76687203 -1047.85528564 360.22784424 C-1057.9203627 340.39540935 -1067.00829431 320.29142637 -1075.29888916 299.64703369 C-1079.20746263 289.91609629 -1083.42741003 280.35636261 -1087.84747314 270.84893799 C-1088.3965332 269.66235596 -1088.94559326 268.47577393 -1089.5112915 267.25323486 C-1092.62732803 260.6117423 -1095.90525565 254.08680117 -1099.35137939 247.61065674 C-1103.88274249 239.09107017 -1108.22878567 230.48372013 -1112.53497314 221.84893799 C-1112.87280382 221.1717742 -1113.2106345 220.4946104 -1113.55870247 219.7969265 C-1116.36672976 214.16688514 -1119.16956163 208.53426113 -1121.972229 202.90155029 C-1133.70880427 179.31279577 -1133.70880427 179.31279577 -1145.89086914 155.95178223 C-1148.53725948 150.9780519 -1151.12367249 145.97263486 -1153.72247314 140.97393799 C-1154.25550049 139.95106689 -1154.78852783 138.9281958 -1155.33770752 137.87432861 C-1156.86821191 134.93162876 -1158.39077658 131.98498888 -1159.90997314 129.03643799 C-1160.37806396 128.13522217 -1160.84615479 127.23400635 -1161.32843018 126.30548096 C-1163.68228688 121.7077123 -1165.69966273 117.26139382 -1167.15997314 112.28643799 C-1167.47450439 111.23971924 -1167.78903564 110.19300049 -1168.11309814 109.11456299 C-1170.09191198 101.47090954 -1170.0961378 93.9838729 -1170.09527588 86.14385986 C-1170.09744643 83.93858057 -1170.11558927 81.73381547 -1170.13458252 79.52862549 C-1170.21881494 59.42921165 -1166.14903806 45.59548189 -1151.90997314 31.03643799 C-1150.62798167 29.56819118 -1149.34609019 28.09985206 -1148.06768799 26.628479 C-1141.7634509 19.46041269 -1134.64666332 13.60494462 -1126.90997314 8.03643799 C-1125.80782471 7.20305908 -1125.80782471 7.20305908 -1124.68341064 6.35284424 C-1115.93834844 2.20201894 -1105.71731618 2.75309514 -1096.25762939 2.80596924 C-1094.82223534 2.80678737 -1093.38684065 2.80681612 -1091.95144653 2.80612183 C-1088.09367639 2.80716863 -1084.23606414 2.82145237 -1080.37833786 2.8390007 C-1077.96091327 2.84898574 -1075.54350795 2.85524101 -1073.12606812 2.86019897 C-1049.03157673 2.90985725 -1024.93947549 3.1297307 -1000.84747314 3.47393799 C-1000.14492023 3.48372807 -999.44236732 3.49351814 -998.71852493 3.50360489 C-990.30095304 3.62114316 -981.88450795 3.76543351 -973.46826172 3.95849609 C-971.08448915 4.01071101 -968.70055776 4.05609677 -966.31652832 4.09484863 C-962.95240234 4.15149986 -959.58979831 4.23310979 -956.22637939 4.32159424 C-954.73750465 4.33953285 -954.73750465 4.33953285 -953.21855164 4.35783386 C-946.65256829 4.56991188 -946.65256829 4.56991188 -943.29888916 6.67681885 C-941.47712702 9.77179706 -941.39653376 11.91795145 -941.37091064 15.50518799 C-941.34931885 16.78861084 -941.32772705 18.07203369 -941.30548096 19.39434814 C-941.30245972 20.070401 -941.29943848 20.74645386 -941.29632568 21.44299316 C-941.27718603 24.97240721 -941.18643537 28.50018864 -941.10528564 32.02862549 C-941.08359314 33.07462418 -941.08359314 33.07462418 -941.0614624 34.14175415 C-940.78908629 46.6084976 -939.45269333 58.63080249 -936.65997314 70.78643799 C-936.47982666 71.57743896 -936.29968018 72.36843994 -936.11407471 73.18341064 C-932.80919282 86.51961302 -927.17056153 99.17232733 -921.28497314 111.53643799 C-920.96093506 112.22320618 -920.63689697 112.90997437 -920.30303955 113.61755371 C-913.69507626 127.6132607 -906.71802061 141.42283314 -899.75646973 155.24484253 C-899.14096005 156.46703557 -898.52546121 157.68923407 -897.90997314 158.91143799 C-897.45176807 159.82120707 -897.45176807 159.82120707 -896.98430634 160.74935532 C-887.28302843 180.01835666 -878.05906463 199.41601036 -869.5491333 219.24102783 C-867.45486473 224.10922787 -865.28345237 228.94190743 -863.11480713 233.77740479 C-858.91188089 243.1509785 -854.81885115 252.56257553 -850.84747314 262.03643799 C-833.57667732 303.15539906 -814.99141579 343.73167797 -795.46661377 383.82598877 C-793.02465167 388.8623441 -790.62548871 393.91891867 -788.22247314 398.97393799 C-784.03204273 407.78580121 -779.69998945 416.52072459 -775.26080322 425.21002197 C-774.82147461 426.07699707 -774.382146 426.94397217 -773.92950439 427.83721924 C-773.53867676 428.60203613 -773.14784912 429.36685303 -772.74517822 430.15484619 C-771.90997314 432.03643799 -771.90997314 432.03643799 -771.90997314 434.03643799 C-766.0781965 433.15821782 -761.43929436 431.83445768 -757.53106689 427.23956299 C-755.51758095 424.08983032 -753.8024412 420.78803659 -752.12432861 417.45001221 C-750.79826286 414.81440987 -749.42234299 412.20875505 -748.03887939 409.60284424 C-745.96342327 405.67835145 -743.91312651 401.7421888 -741.88262939 397.79425049 C-740.06114828 394.25433573 -738.22191556 390.72619322 -736.34356689 387.21612549 C-729.4579553 374.34750542 -723.14089069 361.2327228 -716.90997314 348.03643799 C-716.32505961 346.79992468 -715.74009764 345.56343428 -715.15509033 344.32696533 C-708.16074355 329.53431433 -701.27740251 314.69558425 -694.53497314 299.78643799 C-686.53511738 282.10393104 -678.27275969 264.54990084 -669.90997314 247.03643799 C-669.59538147 246.37696167 -669.28078979 245.71748535 -668.95666504 245.0380249 C-658.47673632 223.07829353 -647.59425401 201.3203477 -636.66436768 179.58184814 C-630.39896109 167.10694916 -624.26379513 154.58116318 -618.26617432 141.97540283 C-604.89932696 113.89884435 -589.99503317 84.84483871 -559.42559814 73.20050049 C-553.58379901 71.26621588 -547.83654792 70.80728333 -541.72247314 70.47393799 C-540.58721191 70.41133789 -540.58721191 70.41133789 -539.42901611 70.34747314 C-510.88799902 68.85557018 -483.30405937 70.23190073 -461.03497314 90.03643799 C-435.84195737 113.498727 -424.23542536 148.8705103 -411.20318604 179.96392822 C-400.55446745 205.22920607 -388.71669497 229.99236447 -376.98406982 254.76715088 C-375.49181421 257.91989913 -374.00215342 261.07387109 -372.51235962 264.2277832 C-363.97842837 282.29230263 -355.39310488 300.32997549 -346.69781494 318.31744385 C-345.2965039 321.22520634 -343.90837989 324.13910291 -342.52252197 327.05426025 C-336.1672826 340.41199397 -329.6739794 353.69474776 -323.0581665 366.925354 C-321.47249492 370.09889441 -319.89329071 373.27559983 -318.31427002 376.45245361 C-313.16671057 386.77619439 -307.91537667 397.02962652 -302.39825439 407.16143799 C-301.91111465 408.05641495 -301.42397491 408.95139191 -300.92207336 409.87348938 C-292.4936608 425.70758217 -292.4936608 425.70758217 -279.90997314 438.03643799 C-277.86076375 438.48783258 -277.86076375 438.48783258 -275.72247314 438.66143799 C-274.46434814 438.78518799 -273.20622314 438.90893799 -271.90997314 439.03643799 C-271.64982422 438.1970166 -271.38967529 437.35759521 -271.12164307 436.49273682 C-269.8200569 432.77995112 -268.22765444 429.27419739 -266.52325439 425.73565674 C-266.18967422 425.03513687 -265.85609406 424.334617 -265.5124054 423.61286926 C-264.79370763 422.10364017 -264.07362606 420.59506942 -263.35229492 419.08709717 C-257.19713742 406.21283925 -251.15646492 393.29242603 -245.28497314 380.28643799 C-240.41087743 369.49562736 -235.45678923 358.7475695 -230.40997314 348.03643799 C-224.73196898 335.98127793 -219.17128568 323.87733667 -213.67340088 311.73907471 C-208.97358522 301.36418143 -204.23295621 291.00862712 -199.47247314 280.66143799 C-198.0413176 277.54953513 -196.61037586 274.43753398 -195.17950439 271.32550049 C-194.82567688 270.55596542 -194.47184937 269.78643036 -194.1072998 268.99357605 C-185.00979596 249.20433837 -175.93951839 229.40414423 -167.05352783 209.51885986 C-162.61613341 199.59360792 -158.13863463 189.68678321 -153.65350342 179.78302002 C-152.41439197 177.04619784 -151.17617103 174.3089747 -149.93829346 171.57159424 C-149.53514923 170.68011688 -149.132005 169.78863953 -148.71664429 168.87014771 C-147.91428086 167.09584242 -147.1119329 165.32153015 -146.30960083 163.54721069 C-144.22401001 158.93641737 -142.13393267 154.3277167 -140.03799438 149.72161865 C-124.94794102 117.27186011 -124.94794102 117.27186011 -114.90997314 83.03643799 C-114.64700439 81.76691284 -114.64700439 81.76691284 -114.37872314 80.47174072 C-112.65419491 71.27293591 -112.31223398 62.05206611 -111.90997314 52.72393799 C-110.35258693 16.84947383 -110.35258693 16.84947383 -104.90997314 9.03643799 C-84.08113269 -7.7461818 -25.50530726 0.31937136 0 0 Z " transform="translate(1171.9099731445313,811.9635620117188)" style="fill: #000000;"/><path d="M0 0 C64.22019703 -1.60583948 125.14367994 11.16258698 182.34814453 40.89550781 C185.06150652 42.29358303 187.79048053 43.65917815 190.51904297 45.02734375 C203.49660794 51.58686618 215.81186235 58.57255914 227.62060547 67.06640625 C228.19584961 67.47874512 228.77109375 67.89108398 229.36376953 68.31591797 C239.69241545 75.77481206 249.46459446 83.86940696 258.81982422 92.51171875 C261.00356692 94.50358448 263.21149822 96.44476922 265.44873047 98.375 C269.7004133 102.08439423 273.70609714 106.00375336 277.68310547 110.00390625 C278.35148437 110.66841797 279.01986328 111.33292969 279.70849609 112.01757812 C283.65629418 115.97304928 287.4181079 120.03818345 291.06860352 124.26928711 C293.00376627 126.51008199 294.9979852 128.6937699 296.99560547 130.87890625 C301.72542009 136.12892045 306.21587037 141.54182324 310.62060547 147.06640625 C311.40177734 148.0409375 312.18294922 149.01546875 312.98779297 150.01953125 C323.64876479 163.57565516 333.09218773 178.08288708 341.62060547 193.06640625 C342.34932861 194.34547852 342.34932861 194.34547852 343.09277344 195.65039062 C393.51034049 284.84712051 400.13285348 387.98970979 373.54785156 486.14746094 C361.48180744 528.90916548 341.24758005 570.47675722 314.62060547 606.06640625 C314.21777344 606.61200195 313.81494141 607.15759766 313.39990234 607.71972656 C307.69947361 615.43021139 301.59473275 622.55392159 295.02368164 629.53588867 C293.47606535 631.22407495 291.99240471 632.95913135 290.50341797 634.69921875 C286.12773472 639.72301923 281.42339056 644.41376176 276.70532227 649.11206055 C275.18568879 650.62633205 273.67148029 652.14588055 272.15771484 653.66601562 C266.8189769 659.00911684 261.40300739 664.2004949 255.62060547 669.06640625 C254.99275146 669.60096436 254.36489746 670.13552246 253.71801758 670.6862793 C229.79981062 690.94245533 204.12696873 709.37704628 175.82519531 722.99658203 C173.50306578 724.12344489 171.19677175 725.27928071 168.89013672 726.4375 C135.40314863 743.05999614 97.09329444 756.09858611 59.62060547 759.06640625 C58.68742996 759.14822647 57.75425446 759.23004669 56.7928009 759.31434631 C44.36114946 760.28655851 31.93541674 760.23045726 19.47216797 760.234375 C17.04568462 760.23759612 14.61920146 760.2409608 12.19271851 760.24446106 C7.12798615 760.25041803 2.06327077 760.25230443 -3.00146484 760.25170898 C-9.44853364 760.25160737 -15.8954923 760.26527479 -22.34253502 760.28248119 C-27.3478138 760.29366925 -32.35306648 760.29562614 -37.35835648 760.29509926 C-39.73347987 760.29626855 -42.10860418 760.30063024 -44.48371506 760.30843163 C-61.07969398 760.35785973 -77.6111696 760.36091076 -93.62939453 755.44140625 C-94.50595703 755.17908203 -95.38251953 754.91675781 -96.28564453 754.64648438 C-128.48344769 744.78015755 -158.32119032 728.68858159 -187.30908203 711.78515625 C-189.70934765 710.44149611 -192.10990917 709.18225767 -194.57128906 707.95898438 C-195.28608429 707.60324341 -196.00087952 707.24750244 -196.73733521 706.88098145 C-197.55015457 706.47776672 -197.55015457 706.47776672 -198.37939453 706.06640625 C-198.40844116 722.83256921 -198.42722883 739.59873425 -198.43889618 756.36491776 C-198.44084205 759.15736538 -198.44301419 761.94981268 -198.44538116 764.74225998 C-198.47312068 798.14362651 -198.42095738 831.5420827 -198.10722709 864.94216776 C-198.0865024 867.15587891 -198.06617002 869.36959333 -198.04595375 871.58330917 C-197.9225555 885.06736443 -197.79417667 898.55131233 -197.63114184 912.03495318 C-197.55993118 917.96048015 -197.49931549 923.88608836 -197.44188499 929.81176567 C-197.41638258 932.22536239 -197.38696637 934.63892181 -197.35311317 937.05241585 C-196.96278265 964.98807599 -197.70597402 992.07636919 -217.37939453 1014.06640625 C-235.19774132 1029.6513358 -255.4228836 1035.16028377 -278.72314453 1035.26953125 C-280.17509216 1035.27808136 -280.17509216 1035.27808136 -281.65637207 1035.2868042 C-283.69684781 1035.29619956 -285.73733834 1035.30276627 -287.77783203 1035.30664062 C-290.843218 1035.31629234 -293.90791686 1035.34734663 -296.97314453 1035.37890625 C-319.47429236 1035.49928136 -336.80409371 1032.81669165 -354.37939453 1018.06640625 C-355.03810547 1017.52371094 -355.69681641 1016.98101563 -356.37548828 1016.421875 C-365.67303192 1007.97158954 -375.66813897 993.45545939 -378.06689453 981.12890625 C-378.29763672 979.98550781 -378.52837891 978.84210937 -378.76611328 977.6640625 C-380.19202372 969.29932676 -380.54431366 961.27247125 -380.58074951 952.79206848 C-380.58997166 951.42598795 -380.59958101 950.05990998 -380.60953784 948.6938346 C-380.63582367 944.89680029 -380.65578636 941.09975524 -380.67449415 937.30267695 C-380.69161971 933.95893995 -380.7120251 930.61522551 -380.73227316 927.27150621 C-380.80169274 915.7502204 -380.85740655 904.22888078 -380.91144192 892.70751426 C-380.92631638 889.57607474 -380.94170894 886.44463822 -380.9572897 883.31320214 C-381.40705807 792.90658738 -381.514207 702.49933299 -381.61682892 480.71049309 C-381.61705854 478.72753523 -381.61728885 476.74457737 -381.61751983 474.76161952 C-381.61763409 473.77898269 -381.61774835 472.79634585 -381.61786608 471.78393215 C-381.61833061 467.80692063 -381.61880111 463.82990911 -381.61927573 459.85289759 C-381.6195112 457.86139705 -381.61974173 455.86989651 -381.6199673 453.87839597 C-381.62367725 421.45284216 -381.63983391 389.02731001 -381.66281927 356.60176453 C-381.68740787 321.84943145 -381.70113241 287.09711084 -381.70233035 252.34476882 C-381.70250171 248.54204388 -381.7027171 244.73931895 -381.70296478 240.93659401 C-381.70302055 240.00109432 -381.70307632 239.06559462 -381.70313378 238.10174645 C-381.70427722 223.14819915 -381.71522567 208.19467499 -381.72985184 193.24113549 C-381.74419503 178.32468685 -381.74746366 163.4082678 -381.73941186 148.49181416 C-381.73496509 139.6625382 -381.73878157 130.83335807 -381.75465037 122.00409475 C-381.76442103 116.10531008 -381.76320277 110.20659237 -381.75321414 104.30780828 C-381.74784226 100.95519233 -381.74872633 97.6029093 -381.75972286 94.25028523 C-381.8154661 76.10760753 -381.48256147 59.68947442 -373.37939453 43.06640625 C-372.73357422 41.64714844 -372.73357422 41.64714844 -372.07470703 40.19921875 C-364.05040739 23.83327429 -344.71294452 13.24352781 -328.18017578 6.953125 C-315.68959713 2.99864612 -303.72431765 1.89724803 -290.70825195 1.93603516 C-288.58228333 1.94136765 -286.45652838 1.93607989 -284.33056641 1.9296875 C-272.11960664 1.91925756 -261.31225741 2.60752833 -249.69189453 6.62890625 C-248.12749634 7.16572021 -248.12749634 7.16572021 -246.53149414 7.71337891 C-233.02415512 12.46671301 -220.9877687 17.00323004 -212.37939453 29.06640625 C-211.615625 30.0409375 -211.615625 30.0409375 -210.83642578 31.03515625 C-204.56577769 40.3032109 -204.14261002 54.18678098 -204.37939453 65.06640625 C-189.06984251 58.65195708 -174.53825077 51.72569784 -160.37939453 43.06640625 C-111.21450826 13.24219943 -57.02097814 1.59139196 0 0 Z M-39.37939453 172.06640625 C-40.14799805 172.20030762 -40.91660156 172.33420898 -41.70849609 172.47216797 C-72.4801138 178.08122334 -101.690296 195.13690271 -125.37939453 215.06640625 C-126.13953857 215.69337402 -126.13953857 215.69337402 -126.91503906 216.33300781 C-141.30420676 228.20587458 -154.34202404 240.99529794 -165.37939453 256.06640625 C-166.13478516 257.07703125 -166.89017578 258.08765625 -167.66845703 259.12890625 C-187.1051208 286.0517762 -200.36998547 319.0678662 -204.37939453 352.06640625 C-204.47365723 352.80141357 -204.56791992 353.5364209 -204.66503906 354.29370117 C-205.76124494 364.23701405 -205.62323934 374.26319247 -205.62939453 384.25390625 C-205.63006927 385.23517487 -205.63074402 386.21644348 -205.63143921 387.22744751 C-205.57083052 442.69912221 -184.55829409 492.87321377 -145.31689453 532.37890625 C-138.9481079 538.71154766 -132.48512861 544.57009058 -125.37939453 550.06640625 C-124.2542851 550.98888774 -123.13207786 551.91491596 -122.01220703 552.84375 C-85.44406751 583.02463482 -47.85213013 597.283325 -0.69189453 597.31640625 C0.30483276 597.31741333 1.30156006 597.31842041 2.32849121 597.31945801 C17.94003877 597.30880508 33.20812393 596.78503783 48.62060547 594.06640625 C49.79864746 593.8655542 49.79864746 593.8655542 51.00048828 593.66064453 C81.58078513 588.19277611 114.48286843 570.54193327 137.62060547 550.06640625 C139.02632812 548.82310547 139.02632812 548.82310547 140.46044922 547.5546875 C151.36049006 537.78107853 161.60349479 527.62557473 170.62060547 516.06640625 C171.40951172 515.08285156 172.19841797 514.09929687 173.01123047 513.0859375 C192.70882219 488.31590424 205.36813896 460.52242256 213.62060547 430.06640625 C213.93900391 428.926875 214.25740234 427.78734375 214.58544922 426.61328125 C227.4245948 374.74568815 215.46413912 315.71194225 188.55810547 270.44140625 C182.12699862 259.90198301 174.5880506 250.87673485 166.20263672 241.87109375 C164.15229679 239.6439469 162.1862271 237.3874475 160.24560547 235.06640625 C155.19043968 229.25296559 149.36574189 224.18105921 143.62060547 219.06640625 C143.09692383 218.59799316 142.57324219 218.12958008 142.03369141 217.64697266 C122.35269832 200.16035435 100.69497186 187.20024961 75.62060547 179.06640625 C74.37174561 178.65648437 74.37174561 178.65648437 73.09765625 178.23828125 C50.23307992 170.86176966 26.74034634 168.838535 2.80810547 168.81640625 C1.66332733 168.81489563 1.66332733 168.81489563 0.49542236 168.81335449 C-12.97087442 168.82529114 -26.10109268 169.69140442 -39.37939453 172.06640625 Z " transform="translate(2796.37939453125,809.93359375)" style="fill: #010101;"/><path d="M0 0 C1.91295868 0.00223572 1.91295868 0.00223572 3.86456299 0.0045166 C24.0247864 0.04679908 43.81044966 0.80481252 63.8125 3.3125 C65.0284082 3.45171875 66.24431641 3.5909375 67.49707031 3.734375 C103.88321785 7.92047773 137.78038179 19.80859645 170.8125 35.3125 C171.70098633 35.72580566 172.58947266 36.13911133 173.50488281 36.56494141 C194.59911804 46.45363576 214.99084606 58.58872901 233.8125 72.3125 C234.82441406 73.04339844 235.83632812 73.77429688 236.87890625 74.52734375 C248.55004662 83.12140583 259.82615143 92.28004356 270.453125 102.13671875 C272.4516708 103.97974857 274.48565493 105.74710726 276.5625 107.5 C285.23731236 115.0433151 293.62960104 123.39641349 301.03125 132.1953125 C302.48605586 133.92448964 303.96620146 135.6174507 305.46875 137.3046875 C355.77428815 194.17757148 386.21032894 275.70990033 396.8125 350.3125 C396.91344971 350.98764648 397.01439941 351.66279297 397.1184082 352.35839844 C399.77119145 372.46720917 399.25716308 394.78085148 393.8125 414.3125 C393.48306396 415.5176123 393.48306396 415.5176123 393.14697266 416.74707031 C387.82329077 435.63804058 378.71978813 448.2794061 361.37890625 458.1328125 C349.97157319 463.3763659 337.27202711 463.46272698 324.96263123 463.43948364 C323.04750295 463.44182575 323.04750295 463.44182575 321.09368521 463.44421518 C317.56264756 463.44837918 314.03163711 463.44633672 310.50059938 463.44323099 C306.67123776 463.44094737 302.84188058 463.44442365 299.01251984 463.44713593 C291.46878702 463.45154424 283.92506406 463.45052063 276.38133087 463.44766669 C270.17395897 463.44544878 263.96659032 463.44540308 257.75921822 463.44681931 C256.86845015 463.44702155 255.97768208 463.44722378 255.05992104 463.44743215 C253.24655338 463.44785266 251.43318571 463.44827732 249.61981804 463.44870608 C231.44899999 463.45271056 213.27818801 463.44922994 195.10737091 463.44306505 C182.24897196 463.43873031 169.39057411 463.43618113 156.53217448 463.43507662 C62.11310761 463.42670664 -32.30433601 463.35389299 -198.1875 462.3125 C-197.81987549 463.18874023 -197.45225098 464.06498047 -197.07348633 464.96777344 C-195.68483076 468.2777706 -194.29636847 471.58784882 -192.90795898 474.89794922 C-192.31165599 476.31952016 -191.71530339 477.7410703 -191.11889648 479.16259766 C-190.5395782 480.54341179 -189.96034467 481.92426148 -189.38119698 483.30514717 C-188.80694522 484.67417451 -188.2324151 486.04308511 -187.65760612 487.41187859 C-186.33997863 490.55188939 -185.03025618 493.69454011 -183.73416138 496.84353638 C-183.08288773 498.42556351 -183.08288773 498.42556351 -182.41845703 500.03955078 C-182.04496124 500.95310333 -181.67146545 501.86665588 -181.28665161 502.80789185 C-179.53338364 506.80301791 -177.37387457 510.49404023 -175.0625 514.1875 C-174.59021973 514.94998047 -174.11793945 515.71246094 -173.63134766 516.49804688 C-167.12265684 526.81370779 -159.48782067 536.11059724 -151.23828125 545.078125 C-149.32364309 547.16416886 -147.46927042 549.28932046 -145.625 551.4375 C-137.93751846 560.19074602 -129.45803736 567.31628828 -120.1875 574.3125 C-119.34010254 574.95904541 -119.34010254 574.95904541 -118.47558594 575.61865234 C-74.52847258 608.97068431 -20.44623675 622.18774894 34.03515625 615.05859375 C78.03488875 608.48031544 118.21173486 586.55794695 149.18701172 554.84814453 C163.13682399 540.62782688 163.13682399 540.62782688 169.86328125 540.05078125 C181.34418571 540.52296886 189.99921303 544.62273895 199.4921875 550.69921875 C200.32290771 551.22757324 201.15362793 551.75592773 202.00952148 552.30029297 C211.80764529 558.55207747 221.49722133 564.96823343 231.1875 571.38525391 C242.96830675 579.18180344 254.8428157 586.80929567 266.8125 594.3125 C267.92560547 595.0127832 269.03871094 595.71306641 270.18554688 596.43457031 C284.64605767 605.52914006 299.19736864 614.46877844 313.8125 623.3125 C312.58073356 635.50251165 310.11351488 643.01242492 301.8125 652.3125 C301.17699219 653.05628906 300.54148437 653.80007813 299.88671875 654.56640625 C288.90856133 667.16464127 277.04320674 679.00222879 263.61230469 688.96142578 C261.72017014 690.38181002 259.86269803 691.83994764 258.0078125 693.30859375 C176.10142759 757.81486616 86.32479319 783.44090243 -49.1875 779.3125 C-116.66977587 770.5005692 -177.0020189 744.61304321 -230.1875 702.3125 C-231.156875 701.54164063 -232.12625 700.77078125 -233.125 699.9765625 C-235.83582376 697.7817194 -238.51532415 695.55418018 -241.1875 693.3125 C-242.18910156 692.48492188 -243.19070313 691.65734375 -244.22265625 690.8046875 C-252.21518507 684.16489142 -259.81098283 677.15053287 -267.36621094 670.02050781 C-269.62703208 667.90030611 -271.91385832 665.80979249 -274.20361328 663.72094727 C-285.92252426 653.00676841 -296.75565617 642.12093062 -306.1875 629.3125 C-306.66541992 628.66829102 -307.14333984 628.02408203 -307.63574219 627.36035156 C-319.98749781 610.61179434 -330.31706664 592.60658444 -340.1875 574.3125 C-340.661875 573.43754883 -341.13625 572.56259766 -341.625 571.66113281 C-374.04556395 511.61132523 -387.65603871 448.35004106 -386.1875 380.3125 C-386.16961426 379.47138672 -386.15172852 378.63027344 -386.13330078 377.76367188 C-384.71838769 320.96059163 -370.14012128 268.61167316 -344.18359375 218.25146484 C-343.19422945 216.32559933 -342.22197842 214.39171721 -341.25 212.45703125 C-331.82917705 193.95647234 -320.7860307 175.82452778 -308.1875 159.3125 C-307.75663086 158.74708496 -307.32576172 158.18166992 -306.88183594 157.59912109 C-293.81360741 140.52399144 -279.60537191 124.6669584 -264.4375 109.4375 C-263.64537109 108.64069824 -262.85324219 107.84389648 -262.03710938 107.02294922 C-257.24866938 102.24753217 -252.33397507 97.69840553 -247.1875 93.3125 C-246.64851074 92.84650391 -246.10952148 92.38050781 -245.55419922 91.90039062 C-237.65584241 85.07508452 -229.56171831 78.54560808 -221.1875 72.3125 C-220.50526367 71.80428711 -219.82302734 71.29607422 -219.12011719 70.77246094 C-208.77605567 63.10319018 -198.25904001 55.8905582 -187.1875 49.3125 C-186.55166992 48.9314209 -185.91583984 48.5503418 -185.26074219 48.15771484 C-166.91029705 37.23217077 -147.25269594 29.48349652 -127.1875 22.3125 C-125.91132812 21.85278809 -125.91132812 21.85278809 -124.609375 21.38378906 C-100.30997601 12.70681419 -74.85815249 5.33820424 -49.1875 2.3125 C-48.1560939 2.18649918 -48.1560939 2.18649918 -47.10385132 2.05795288 C-31.40644072 0.18651891 -15.79475813 -0.04567258 0 0 Z M-28.1875 170.3125 C-29.32880371 170.48990723 -29.32880371 170.48990723 -30.49316406 170.67089844 C-64.58622651 176.29346392 -98.41899135 191.55042594 -125.1875 213.3125 C-125.76048828 213.7765625 -126.33347656 214.240625 -126.92382812 214.71875 C-130.74821304 217.83852634 -134.49023261 221.04337321 -138.1875 224.3125 C-139.00130127 225.03155518 -139.00130127 225.03155518 -139.83154297 225.76513672 C-159.80840566 243.53862587 -180.1456725 264.2315344 -184.375 291.5 C-184.55224609 292.57958984 -184.72949219 293.65917969 -184.91210938 294.77148438 C-185.59612954 299.02614261 -186.1875 302.9932931 -186.1875 307.3125 C-58.4775 307.3125 69.2325 307.3125 200.8125 307.3125 C201.02870388 286.89553542 201.02870388 286.89553542 192.8125 270.3125 C192.21091064 269.39065918 192.21091064 269.39065918 191.59716797 268.45019531 C186.20792553 260.32447971 180.10493981 252.75274642 173.8125 245.3125 C172.8878579 244.20065632 171.96338704 243.0886702 171.0390625 241.9765625 C160.98392903 229.96686744 150.29265317 218.83592267 137.8125 209.3125 C136.31589844 208.14847656 136.31589844 208.14847656 134.7890625 206.9609375 C98.37117874 179.36175888 57.19276298 168.06451884 12.1875 168.125 C10.93542252 168.12590637 10.93542252 168.12590637 9.65805054 168.12683105 C-3.03637719 168.15172834 -15.61881706 168.34813031 -28.1875 170.3125 Z " transform="translate(1770.1875,801.6875)" style="fill: #010101;"/><path d="M0 0 C0.78384567 -0.00095673 1.56769135 -0.00191345 2.37528992 -0.00289917 C4.0232247 -0.00357524 5.67116223 -0.00176126 7.3190918 0.00244141 C9.80719156 0.00777599 12.29510904 0.00248798 14.78320312 -0.00390625 C37.20919831 -0.01695367 37.20919831 -0.01695367 46.82421875 3.1953125 C47.95472656 3.55753906 49.08523438 3.91976562 50.25 4.29296875 C61.09144427 8.6089484 71.1753472 15.21600104 79.7668457 23.06762695 C81.30281402 24.46148195 81.30281402 24.46148195 82.95141602 25.67797852 C88.46179771 29.87679829 91.9920093 34.48816066 92.99079978 41.49254274 C93.21450993 45.60789626 93.28657224 49.6996948 93.30235291 53.81988525 C93.32535381 55.37877248 93.35025936 56.93763262 93.37694353 58.49646115 C93.44009933 62.57203792 93.47332826 66.64725126 93.49662361 70.7232312 C93.51114705 73.04155476 93.53218615 75.35970505 93.55610585 77.67794895 C93.65953381 87.77299663 93.69612563 97.86756439 93.71232973 107.96308732 C93.72054409 112.43229439 93.73416422 116.90148606 93.74701405 121.37068176 C93.77136388 130.12505055 93.79089267 138.87942351 93.80874557 147.63380769 C93.8301183 158.01008208 93.85669851 168.38634154 93.88332152 178.76260355 C93.94024416 201.04391456 93.9897629 223.32523877 94.03720614 245.60657169 C94.04084227 247.3140839 94.04084227 247.3140839 94.04455185 249.05609131 C94.04697806 250.19599222 94.04940426 251.33589314 94.05190399 252.5103365 C94.07648405 264.01858742 94.10245248 275.52683509 94.12855562 287.03508264 C94.26554314 347.46075425 94.38733059 407.88644661 94.49582121 468.31217596 C94.50773282 474.94052932 94.51983406 481.56888231 94.53205872 488.19723511 C94.60455744 527.55109943 94.66447408 566.90491708 94.69037396 606.25884271 C94.69632308 614.69254829 94.70713579 623.12623891 94.72000122 631.55993652 C94.73512952 641.57079882 94.74328207 651.58163433 94.74146891 661.59250855 C94.74068109 666.52170838 94.74272935 671.45085387 94.75358963 676.38004303 C94.76316699 680.77851807 94.76346979 685.17689076 94.75619209 689.57536936 C94.75517993 691.13992042 94.75748337 692.70447825 94.76359761 694.2690177 C94.84983625 717.77439369 94.84983625 717.77439369 88.88671875 726.6953125 C88.16742187 727.77296875 87.448125 728.850625 86.70703125 729.9609375 C85.98257813 731.00765625 85.258125 732.054375 84.51171875 733.1328125 C83.57972656 734.61007812 83.57972656 734.61007812 82.62890625 736.1171875 C75.07598759 747.55717309 63.737545 753.9754175 50.51171875 757.1328125 C41.3319231 758.25975725 32.11293567 758.3112964 22.87890625 758.3359375 C22.15113102 758.33876488 21.42335579 758.34159225 20.67352676 758.34450531 C16.82075913 758.35937978 12.9680278 758.3686828 9.11523438 758.37304688 C5.97351438 758.37742694 2.83206971 758.39131656 -0.30957031 758.4140625 C-43.38762591 758.71962805 -43.38762591 758.71962805 -60.48828125 750.1328125 C-61.95587891 749.43478516 -61.95587891 749.43478516 -63.453125 748.72265625 C-69.27548481 745.79193822 -74.23025642 742.91942362 -77.48828125 737.1328125 C-79.76985003 729.11280421 -79.89018406 720.72314771 -80.11328125 712.4453125 C-80.17128906 710.65963867 -80.17128906 710.65963867 -80.23046875 708.83789062 C-80.3236912 705.93634197 -80.40949473 703.03478284 -80.48828125 700.1328125 C-81.15545166 700.52436523 -81.82262207 700.91591797 -82.51000977 701.31933594 C-97.95368847 710.36146928 -113.4907872 719.09549585 -129.48828125 727.1328125 C-130.2978125 727.54225098 -131.10734375 727.95168945 -131.94140625 728.37353516 C-175.70511506 750.35501721 -220.96532228 758.12210722 -269.48828125 759.1328125 C-270.58487061 759.15770752 -270.58487061 759.15770752 -271.70361328 759.18310547 C-276.30125812 759.27369395 -280.89159938 759.23696081 -285.48828125 759.1328125 C-286.35227539 759.11492676 -287.21626953 759.09704102 -288.10644531 759.07861328 C-360.45050221 757.38555968 -434.96060289 737.16139397 -493.48828125 693.1328125 C-494.04499512 692.71499512 -494.60170898 692.29717773 -495.17529297 691.86669922 C-502.76759179 686.14550912 -510.18605375 680.21997012 -517.48828125 674.1328125 C-517.9959906 673.71052872 -518.50369995 673.28824493 -519.02679443 672.85316467 C-527.59695578 665.69942977 -535.72170789 658.21855458 -543.58569336 650.29614258 C-545.31076602 648.56026519 -547.04640116 646.8354616 -548.78320312 645.11132812 C-555.46832279 638.43522973 -561.61883677 631.54767103 -567.48828125 624.1328125 C-569.00831301 622.31443381 -570.52915451 620.49673171 -572.05078125 618.6796875 C-576.57231536 613.14944309 -580.57092896 607.35123588 -584.48828125 601.3828125 C-585.18324707 600.33077637 -585.87821289 599.27874023 -586.59423828 598.19482422 C-591.78345509 590.29882267 -596.81159192 582.34266096 -601.48828125 574.1328125 C-601.86581543 573.47249023 -602.24334961 572.81216797 -602.63232422 572.13183594 C-605.64858504 566.83336553 -608.58074063 561.49156267 -611.48828125 556.1328125 C-611.96168945 555.2665625 -612.43509766 554.4003125 -612.92285156 553.5078125 C-631.17209182 519.97257497 -643.94388653 484.52799378 -651.48828125 447.1328125 C-651.67696777 446.20130371 -651.8656543 445.26979492 -652.06005859 444.31005859 C-653.84671182 434.62683927 -654.44760025 424.81860392 -655.11328125 415.0078125 C-655.17865082 414.05538666 -655.24402039 413.10296082 -655.31137085 412.12167358 C-661.11777159 325.56487321 -643.62474466 247.548945 -595.30078125 174.5078125 C-594.33954346 173.05121216 -594.33954346 173.05121216 -593.35888672 171.56518555 C-588.77886324 164.75241523 -583.7740592 158.40947846 -578.48828125 152.1328125 C-577.52200446 150.9675565 -576.55583567 149.80221092 -575.58984375 148.63671875 C-570.26469252 142.31205175 -564.82244622 136.13626287 -559.19140625 130.08203125 C-557.15804556 127.88931032 -555.19977352 125.64225077 -553.25 123.375 C-549.05700142 118.56551792 -544.57170254 114.06968849 -540.05078125 109.5703125 C-539.24318359 108.75884766 -538.43558594 107.94738281 -537.60351562 107.11132812 C-532.72764365 102.24331412 -527.72565626 97.60753855 -522.48828125 93.1328125 C-521.50085937 92.26398438 -520.5134375 91.39515625 -519.49609375 90.5 C-513.35817479 85.19377738 -507.05436674 80.2134251 -500.48828125 75.4453125 C-499.78977051 74.93532715 -499.09125977 74.4253418 -498.37158203 73.89990234 C-487.66129238 66.22448076 -476.2144898 59.71628141 -464.67578125 53.3828125 C-463.73810913 52.86757019 -463.73810913 52.86757019 -462.78149414 52.34191895 C-405.51395674 20.92908613 -350.93308372 3.97665931 -285.47021484 3.89257812 C-282.58336602 3.88821537 -279.69681974 3.8743795 -276.81005859 3.8515625 C-233.6708286 3.51800844 -188.98942182 8.61425491 -149.48828125 27.1328125 C-148.16159424 27.74286133 -148.16159424 27.74286133 -146.80810547 28.36523438 C-122.60714354 39.52805464 -99.15199552 52.11159756 -76.48828125 66.1328125 C-76.50511963 65.47385986 -76.52195801 64.81490723 -76.53930664 64.13598633 C-76.77907828 49.75847559 -76.67522516 39.98412231 -66.48828125 29.1328125 C-65.781875 28.24851562 -65.07546875 27.36421875 -64.34765625 26.453125 C-58.70860462 19.58183617 -51.96550773 14.77384962 -44.48828125 10.1328125 C-43.28945313 9.37484375 -43.28945313 9.37484375 -42.06640625 8.6015625 C-29.88961617 1.71537776 -13.7805975 -0.03802849 0 0 Z M-392.48828125 205.1328125 C-393.13764648 205.56980469 -393.78701172 206.00679687 -394.45605469 206.45703125 C-403.28683011 212.45808094 -411.47898632 219.08234174 -419.48828125 226.1328125 C-420.00132812 226.57737793 -420.514375 227.02194336 -421.04296875 227.47998047 C-455.68447204 257.56049903 -479.89396 306.08306316 -484.07519531 351.62866211 C-488.22697684 412.27432797 -478.25247671 473.90508516 -438.17578125 521.90234375 C-435.99619412 524.36573128 -433.76713311 526.76119322 -431.48828125 529.1328125 C-430.77027344 529.89078125 -430.05226563 530.64875 -429.3125 531.4296875 C-423.75178871 537.15830659 -417.7642152 542.21144963 -411.48828125 547.1328125 C-410.55967285 547.86806152 -410.55967285 547.86806152 -409.61230469 548.61816406 C-394.520082 560.53771512 -379.03670948 571.16115909 -361.48828125 579.1328125 C-360.32425781 579.66519531 -359.16023438 580.19757813 -357.9609375 580.74609375 C-334.7289858 590.68064105 -309.5859097 594.52853573 -284.48828125 595.1328125 C-283.73675781 595.15472656 -282.98523437 595.17664062 -282.2109375 595.19921875 C-247.05372215 596.12603462 -214.04893097 591.66754423 -182.11328125 576.5703125 C-181.19321289 576.13589844 -180.27314453 575.70148438 -179.32519531 575.25390625 C-169.08118653 570.22360015 -160.25344039 563.37632996 -151.48828125 556.1328125 C-150.49699219 555.3284375 -149.50570312 554.5240625 -148.484375 553.6953125 C-140.82740542 547.38088108 -133.71236528 540.5660904 -126.67578125 533.5703125 C-125.8046167 532.70833252 -124.93345215 531.84635254 -124.03588867 530.95825195 C-118.09837954 524.9925093 -112.71551827 518.72554246 -107.48828125 512.1328125 C-106.56018814 510.99064784 -105.63185745 509.84867611 -104.703125 508.70703125 C-84.35132053 482.90946092 -73.85487237 449.56172986 -70.48828125 417.1328125 C-70.39691895 416.37645508 -70.30555664 415.62009766 -70.21142578 414.84082031 C-66.72967149 382.95266782 -67.50039263 348.09976035 -79.48828125 318.1328125 C-79.84809082 317.22885742 -80.20790039 316.32490234 -80.57861328 315.39355469 C-89.48396364 293.37402948 -99.96005015 271.99766597 -114.48828125 253.1328125 C-115.1946875 252.19695312 -115.90109375 251.26109375 -116.62890625 250.296875 C-121.85545947 243.56184504 -127.64474806 237.32998891 -133.48828125 231.1328125 C-134.58269531 229.9571875 -134.58269531 229.9571875 -135.69921875 228.7578125 C-141.47573708 222.74507967 -147.90618769 217.68411937 -154.52001953 212.64355469 C-156.57463649 211.06653041 -158.60849697 209.46525179 -160.640625 207.859375 C-169.53665951 200.87036164 -178.52214849 194.50459186 -188.48828125 189.1328125 C-189.08914551 188.80506836 -189.69000977 188.47732422 -190.30908203 188.13964844 C-210.07396225 177.57249453 -233.15569638 170.01677429 -255.48828125 168.1328125 C-256.18469727 168.06803711 -256.88111328 168.00326172 -257.59863281 167.93652344 C-306.58027404 163.48788175 -352.09172151 177.9159333 -392.48828125 205.1328125 Z " transform="translate(4191.48828125,811.8671875)" style="fill: #010101;"/><path d="M0 0 C13.26153455 11.42675131 22.01151879 26.66646777 30 42 C30.6172998 43.17103271 30.6172998 43.17103271 31.24707031 44.36572266 C39.67165831 60.42856027 46.8738661 77.03876505 54.17883301 93.62882996 C56.84712153 99.67834602 59.59220737 105.689794 62.375 111.6875 C66.93663179 121.53957098 71.29032342 131.47814994 75.63439941 141.42736816 C82.94045772 158.1568866 90.42473705 174.77327177 98.23730469 191.27294922 C100.09634166 195.20014204 101.94322633 199.13299545 103.7890625 203.06640625 C109.33063647 214.86989049 114.88550006 226.66683137 120.48828125 238.44140625 C127.60801126 253.41017099 134.6825715 268.39075111 141.5 283.5 C152.38731216 307.62610753 163.8313153 331.49227606 175.35742188 355.31860352 C179.93070344 364.79735744 184.36852297 374.33666967 188.77661133 383.89306641 C189.28603271 384.9969873 189.7954541 386.1009082 190.3203125 387.23828125 C190.76648926 388.20805908 191.21266602 389.17783691 191.67236328 390.17700195 C192.63105807 392.21550651 193.63540276 394.23275577 194.66748047 396.23510742 C196 399 196 399 196 401 C199.96 401 203.92 401 208 401 C208.26772217 400.14164551 208.53544434 399.28329102 208.8112793 398.39892578 C210.00387749 394.98891304 211.42677414 391.85832713 213.01953125 388.6171875 C213.31405182 388.01433929 213.60857239 387.41149109 213.91201782 386.79037476 C214.54543042 385.49401882 215.18034294 384.19839486 215.81661987 382.90344238 C217.53087107 379.41179746 219.23045366 375.91303469 220.9296875 372.4140625 C221.27557419 371.70205688 221.62146088 370.99005127 221.97782898 370.25646973 C227.17841265 359.53094039 232.16332234 348.70551476 237.1385498 337.8739624 C238.02358526 335.94869362 238.91049296 334.02429671 239.79785156 332.10009766 C250.55463133 308.7675764 261.01638608 285.30760803 271.42236328 261.81689453 C275.67014519 252.22887159 279.92872586 242.64564425 284.1875 233.0625 C284.60214508 232.12931946 285.01679016 231.19613892 285.44400024 230.23468018 C293.62291036 211.82908871 301.84066224 193.44101989 310.07666016 175.06091309 C311.48921269 171.90806744 312.90078842 168.75478478 314.3125 165.6015625 C316.66914725 160.33896879 319.02830486 155.07750787 321.38970947 149.81704712 C322.93368372 146.37733346 324.4763958 142.93705936 326.01757812 139.49609375 C336.12532227 116.93125514 346.33630323 94.41786672 356.75856018 71.99636841 C358.90908358 67.36608888 361.04111149 62.72790614 363.15638733 58.0814209 C364.49034191 55.1552375 365.83384275 52.23349806 367.17910767 49.3125 C367.79597253 47.96743806 368.40878261 46.62050691 369.01693726 45.27148438 C378.98335332 23.18171236 395.15497032 5.65416002 417.25 -4.62890625 C436.11668174 -11.52703676 460.57303972 -11.34781905 480 -7 C481.08925781 -6.76667969 482.17851562 -6.53335938 483.30078125 -6.29296875 C496.20101872 -2.97316616 505.56042223 5.99702152 515 15 C515.80002441 15.76062744 515.80002441 15.76062744 516.61621094 16.53662109 C521.05346971 20.84973496 524.8923891 25.44581049 528.625 30.375 C529.1715625 31.07882812 529.718125 31.78265625 530.28125 32.5078125 C542.08333665 47.98040456 543.26264054 62.90677706 543.375 81.8125 C543.38294586 82.52124268 543.39089172 83.22998535 543.39907837 83.96020508 C543.47696112 93.01921203 542.75510452 101.29512791 540 110 C539.76603516 110.75547119 539.53207031 111.51094238 539.29101562 112.28930664 C529.65851778 141.80748577 513.84923505 169.28035994 498.71508789 196.25488281 C492.85906739 206.75767316 487.39880825 217.47434172 481.92895508 228.1817627 C481.31150378 229.39029581 480.69350566 230.59854971 480.07495117 231.80651855 C470.85582645 249.81265957 462.22534594 268.02773181 453.93621826 286.47906494 C439.2959737 319.0520534 423.93189324 351.22481591 407.92272949 383.14611816 C401.58110337 395.79169961 395.33960474 408.47067161 389.29980469 421.26367188 C387.31643234 425.43903574 385.29802869 429.59732877 383.28417969 433.75805664 C378.34652587 443.96394587 373.49531518 454.20326972 368.75 464.5 C363.80108746 475.23427169 358.68667839 485.87888388 353.5 496.5 C347.86201691 508.04831367 342.32724417 519.63188624 336.94873047 531.30395508 C332.92839264 540.02420312 328.83354243 548.70686269 324.7180481 557.38250732 C318.268309 570.98355694 311.94109772 584.63292422 305.73706055 598.34765625 C284.17524814 646.00389268 261.96001828 693.37907736 239.1640625 740.45703125 C236.23647685 746.50413187 233.33198318 752.56199663 230.4375 758.625 C226.47482446 766.92465646 222.49265134 775.2147222 218.5 783.5 C209.3617512 802.47214745 200.2889434 821.47230061 191.33374023 840.53149414 C187.77033259 848.11501358 184.20129937 855.69577113 180.6171875 863.26953125 C179.52445307 865.57909595 178.43173003 867.88866605 177.33901978 870.19824219 C176.61152827 871.73587197 175.88396859 873.2734695 175.15634155 874.81103516 C171.24535689 883.07847492 167.36193108 891.35583914 163.56298828 899.67553711 C157.84965776 912.18625039 151.89442315 924.57176115 145.875 936.9375 C145.25109879 938.22253922 145.25109879 938.22253922 144.61459351 939.53353882 C121.52369733 987.05227163 121.52369733 987.05227163 110 1000 C109.30132812 1000.79277344 108.60265625 1001.58554688 107.8828125 1002.40234375 C98.39539692 1012.5481387 85.61731497 1018.69011069 71.69140625 1019.35180664 C66.57180427 1019.48781487 61.45615972 1019.47193847 56.33544922 1019.41162109 C53.13867028 1019.37515593 49.94305913 1019.37060274 46.74609375 1019.37109375 C17.33376979 1019.27396162 17.33376979 1019.27396162 5.0625 1013.75 C3.98415894 1013.28049927 3.98415894 1013.28049927 2.8840332 1012.80151367 C-2.33433307 1010.45851302 -6.81743032 1007.94645687 -11 1004 C-11.9075 1003.16984375 -12.815 1002.3396875 -13.75 1001.484375 C-27.7361822 988.32609878 -42.66399249 969.89489441 -44 950 C-44.11988281 948.56720703 -44.11988281 948.56720703 -44.2421875 947.10546875 C-45.00357074 929.30253716 -38.4817983 912.26528795 -32 896 C-31.6095752 895.01708984 -31.21915039 894.03417969 -30.81689453 893.02148438 C-23.14047056 873.89959526 -14.15187355 855.44488838 -5 837 C-4.34436066 835.67742187 -4.34436066 835.67742187 -3.67547607 834.328125 C-0.33399327 827.5894164 3.0174839 820.8557332 6.375 814.125 C6.83113678 813.20986633 7.28727356 812.29473267 7.75723267 811.35186768 C12.89161548 801.06040967 18.11091921 790.82275554 23.49095154 780.65744019 C27.06510065 773.89962484 30.53009243 767.09371296 33.9375 760.25 C34.23125519 759.66127106 34.52501038 759.07254211 34.82766724 758.4659729 C39.68826653 748.72153653 44.42688201 738.9225762 49.09765625 729.0859375 C51.22953184 724.60131296 53.38705911 720.12958836 55.55859375 715.6640625 C63.31314143 699.71438502 70.90453705 683.7038733 78.33349609 667.59912109 C80.10374781 663.77593755 81.88730732 659.95921297 83.67578125 656.14453125 C91.06569992 640.43195136 91.06569992 640.43195136 98.25 624.625 C98.75015625 623.50351563 99.2503125 622.38203125 99.765625 621.2265625 C107.05447487 602.17406252 98.71311127 585.3073509 91.01025391 567.74316406 C86.97705698 558.74082223 82.48486933 549.99367676 77.84765625 541.29003906 C74.8391372 535.63649224 71.95815065 529.9306325 69.125 524.1875 C65.75912399 517.38757835 62.23524516 510.70130696 58.5625 504.0625 C52.06806769 492.31056695 45.97653838 480.35760754 39.86523438 468.40380859 C39.05212394 466.8134558 38.23897364 465.22312339 37.42578125 463.6328125 C37.03359406 462.86572968 36.64140686 462.09864685 36.23733521 461.30831909 C33.38946459 455.74456921 30.49734004 450.20591294 27.5625 444.6875 C23.3848301 436.82434138 19.41465787 428.86288974 15.45483398 420.88818359 C12.43119859 414.81380801 9.32555636 408.79517933 6.125 402.8125 C1.62044334 394.34500599 -2.55260971 385.73362337 -6.69604492 377.0847168 C-13.6491282 362.58456118 -20.75738623 348.16050136 -27.85717773 333.73175049 C-34.0054146 321.23654079 -40.11326271 308.72506338 -46.10600281 296.15444946 C-50.35393942 287.24501865 -54.66889488 278.36922694 -59 269.5 C-59.81877391 267.821658 -60.63745626 266.14327134 -61.45605469 264.46484375 C-62.72107707 261.87117087 -63.98618522 259.2775401 -65.25164795 256.68408203 C-68.05096285 250.94709078 -70.84701454 245.20852099 -73.640625 239.46875 C-81.28055584 223.77315949 -88.93305735 208.08384359 -96.60986328 192.40625 C-98.57196341 188.39916352 -100.5325353 184.39133537 -102.49169922 180.3828125 C-106.612427 171.95313813 -110.73514858 163.52478032 -114.89927673 155.11643982 C-151.56985185 81.05768604 -151.56985185 81.05768604 -142.1640625 49.8515625 C-132.23388034 25.52594847 -111.30682924 2.53579053 -87.25 -8.4375 C-61.03161881 -17.43274948 -22.09739444 -18.2721312 0 0 Z " transform="translate(4475,821)" style="fill: #000000;"/><path d="M0 0 C4.64993529 -0.00593431 9.29984217 -0.01684672 13.94976473 -0.02962726 C20.21441645 -0.04627088 26.47899529 -0.05243972 32.74366808 -0.05060428 C35.0333828 -0.05139496 37.32309934 -0.05546234 39.61280107 -0.06321567 C49.91803188 -0.09561253 60.17001599 -0.05661988 70.43059969 0.99384075 C71.48472268 1.09528126 71.48472268 1.09528126 72.56014109 1.19877106 C87.38047376 2.96534746 99.10650147 12.90679284 107.99944735 24.19818646 C110.58986531 27.42247505 113.29326412 30.5008691 116.0814786 33.55365521 C116.95159578 34.51013958 117.82171297 35.46662396 118.71819735 36.45209271 C120.98388817 38.76078204 123.32586462 40.7492936 125.83214998 42.78246075 C127.53746246 44.3069224 128.96007187 45.93276557 130.43401766 47.68182904 C134.9986926 52.9548111 139.92378925 57.85313004 144.85882235 62.77631146 C145.8611294 63.77929423 146.86328815 64.78242523 147.86530733 65.78569561 C149.95389394 67.87574659 152.04425248 69.96400409 154.13592196 72.05096966 C156.79628269 74.70563391 159.45212702 77.36476404 162.10664701 80.02526718 C164.17164465 82.0939047 166.23905063 84.1601222 168.30715799 86.22565037 C169.2865427 87.20437526 170.26520541 88.18382327 171.24308252 89.16405445 C176.24339769 94.17376738 181.27110182 99.08514835 186.65758944 103.68037945 C189.77052173 106.36643111 192.72303285 109.22568816 195.7064786 112.05365521 C199.94764644 116.04762236 204.20298002 119.92874031 208.7689786 123.55365521 C216.02925373 129.35321925 222.63626785 135.86598624 229.36517 142.26312786 C232.21851033 144.9571481 235.11438112 147.60265272 238.0189786 150.24115521 C241.7020451 153.59806459 245.27214334 157.02064922 248.7611661 160.57709271 C250.53527868 162.31725098 252.3838441 163.93465735 254.2689786 165.55365521 C257.27865389 168.14499726 260.10486476 170.85120303 262.8939786 173.67865521 C265.62227267 176.44425928 268.37914693 179.09152552 271.3314786 181.61615521 C274.5043378 184.33484768 277.45736241 187.20617196 280.3939786 190.17865521 C283.31024463 193.13048546 286.24003694 195.9825438 289.3939786 198.67865521 C293.46601471 202.1595893 297.18175113 205.95157656 300.94475985 209.76068646 C303.70443899 212.48515439 306.58578517 215.01412897 309.53069735 217.53412396 C311.39849653 219.18264273 313.14853484 220.90169102 314.8939786 222.67865521 C317.79397213 225.62406251 320.83024291 228.3332923 323.96038485 231.03021771 C327.15992958 233.85485592 330.27452123 236.7661468 333.3939786 239.67865521 C337.67316246 243.67064929 341.97463519 247.61656658 346.40569735 251.44037396 C348.93450788 253.6512201 351.41270424 255.91461964 353.8939786 258.17865521 C357.68060857 261.63193674 361.4987418 265.03964572 365.36663485 268.40131146 C368.59799338 271.23419803 371.77865941 274.12309388 374.96819735 277.00287396 C377.03100647 278.85309084 379.1111023 280.67810329 381.2064786 282.49115521 C386.47410615 287.08181858 391.57447126 291.85618159 396.69720125 296.60687786 C398.32683816 298.11646094 399.95931425 299.62288888 401.59319735 301.12787396 C407.44427125 306.51777948 413.27256022 311.93082887 419.0814786 317.36615521 C424.79200274 322.70606351 430.56175898 327.97166516 436.3939786 333.17865521 C438.1026928 334.71989972 439.8110226 336.26157051 441.5189786 337.80365521 C446.90898102 342.65131993 452.34677056 347.43567346 457.8627286 352.13959271 C458.48437899 352.67028363 459.10602938 353.20097454 459.74651766 353.747747 C460.98667476 354.80551868 462.22815714 355.86173906 463.47112703 356.91620404 C464.61360919 357.89030866 465.75031982 358.87123539 466.88030672 359.85980755 C468.17224088 360.98545728 469.49146555 362.07965659 470.8158536 363.16693646 C472.94893647 365.88608913 472.50966911 367.80730772 472.3939786 371.17865521 C470.6998559 371.2095776 470.6998559 371.2095776 468.9715085 371.24112469 C458.16527565 371.43928728 447.35920571 371.64493009 436.55324316 371.85733372 C431.00192385 371.966226 425.45058316 372.07275789 419.89910555 372.17328411 C388.81430964 372.71044025 388.81430964 372.71044025 357.7611661 374.13959271 C356.51331835 374.21587902 355.2654706 374.29216534 353.97980928 374.37076336 C331.08031568 375.90379614 308.58247268 379.23826924 286.3939786 385.17865521 C285.64777254 385.37539837 284.90156649 385.57214154 284.13274813 385.77484661 C254.1842222 393.92020738 225.46585964 415.87959913 203.3939786 437.17865521 C202.49421297 438.01525677 201.59444735 438.85185833 200.6674161 439.71381146 C163.93283207 474.80751348 147.99437666 523.3320398 135.3939786 571.17865521 C113.92982082 564.64034253 93.74221086 548.99033324 76.3939786 535.17865521 C75.79746492 534.70395794 75.20095125 534.22926068 74.58636141 533.74017864 C60.94781022 522.8523735 47.73404812 511.55631563 34.97747469 499.64887005 C32.87312121 497.69505928 30.74838487 495.76414621 28.62395906 493.83221966 C24.0862265 489.70315595 19.6630466 485.49401437 15.36370516 481.11566693 C13.59013828 479.37155691 11.77321055 477.75998715 9.87444735 476.15521771 C4.86531343 471.79884843 0.20520329 467.10299649 -4.46713591 462.3927055 C-6.08055655 460.76632252 -7.69725412 459.14325825 -9.31476164 457.52094036 C-13.32843242 453.49402098 -17.33658975 449.46162857 -21.34491301 445.42938763 C-24.74407864 442.01036901 -28.14537007 438.59349122 -31.5494113 435.17932659 C-33.12889206 433.59344514 -34.70528937 432.00454424 -36.28155851 430.41547161 C-41.55097475 425.11934264 -46.90851323 420.01281296 -52.6060214 415.17865521 C-54.27654602 413.68295294 -55.94382972 412.18361254 -57.6060214 410.67865521 C-60.58664861 407.9888209 -63.57847373 405.31555157 -66.6060214 402.67865521 C-67.93959403 401.51226208 -69.27289478 400.34555808 -70.6060214 399.17865521 C-71.27552824 398.59744915 -71.94503508 398.0162431 -72.63483 397.41742474 C-80.86002473 390.15842647 -88.51568628 382.3455965 -96.2310214 374.55365521 C-98.94936594 371.80845967 -101.67119007 369.06678089 -104.3950839 366.32709271 C-105.00051023 365.71336804 -105.60593657 365.09964337 -106.22970915 364.46732098 C-109.97043336 360.70557391 -113.83885683 357.15041988 -117.85737944 353.68671185 C-120.08297174 351.76732565 -122.24949588 349.7865472 -124.4185214 347.80365521 C-131.36967856 341.54020766 -138.64510431 335.70143941 -146.01056242 329.93597943 C-148.38320498 328.07841908 -150.75103551 326.21480243 -153.11725187 324.34906536 C-154.31844126 323.40473904 -155.52574334 322.4681911 -156.73492765 321.53412396 C-161.30164651 317.85743848 -164.70701325 313.41122695 -168.35992765 308.84662396 C-172.15305631 304.34104679 -176.54238076 300.79491116 -181.16461515 297.17474896 C-186.63657022 292.8359931 -191.43027991 288.34045656 -196.06280851 283.11346966 C-202.13611967 276.3424413 -208.87338989 270.25307434 -215.54742765 264.08441693 C-217.43902936 262.33324959 -219.32119834 260.57268137 -221.1997714 258.80756146 C-226.86411657 253.50298884 -232.66091747 248.45613995 -238.7153964 243.59662396 C-243.44519987 239.64020727 -247.89950773 235.39283572 -252.3950839 231.17474896 C-255.36711171 228.38879445 -258.4099032 225.69996533 -261.4966464 223.04193646 C-263.7785021 221.02629726 -266.00334698 218.95699011 -268.22906828 216.87982708 C-273.61787089 211.85235458 -279.1091466 207.07164761 -284.85992765 202.45599896 C-288.39996874 199.52023231 -291.75607993 196.4023422 -295.119205 193.2687431 C-298.40815463 190.22339962 -301.7921899 187.35667373 -305.2935214 184.55365521 C-309.6543765 181.04492122 -313.59342445 177.30206753 -317.49274015 173.29193646 C-319.45742025 171.32725636 -321.48199872 169.53002639 -323.6060214 167.74115521 C-338.48880236 154.88384149 -355.5054535 134.99075858 -358.6060214 115.17865521 C-358.75813078 114.24795208 -358.91024015 113.31724896 -359.0669589 112.35834271 C-362.2072582 86.74745736 -351.86395904 59.84347471 -336.9185214 39.49115521 C-335.49640461 37.70794441 -334.06049629 35.93557289 -332.6060214 34.17865521 C-331.78424406 33.11324505 -331.78424406 33.11324505 -330.94586515 32.02631146 C-316.0262242 13.51422624 -296.24496876 7.92298946 -273.6060214 5.17865521 C-272.71060637 5.06682904 -271.81519133 4.95500286 -270.8926425 4.83978802 C-251.74307585 2.49192005 -232.56663815 1.96773567 -213.2935214 1.67865521 C-212.03841764 1.65908764 -210.78331388 1.63952008 -209.49017668 1.61935955 C-139.66700272 0.53914609 -69.83114569 0.08347864 0 0 Z " transform="translate(1086.6060214042664,1.821344792842865)" style="fill: #FF46C2;"/><path d="M0 0 C0.83427521 -0.00696899 1.66855042 -0.01393799 2.52810669 -0.02111816 C5.21670607 -0.03846014 7.90509696 -0.04484118 10.59375 -0.046875 C11.51081726 -0.04788208 12.42788452 -0.04888916 13.3727417 -0.04992676 C69.34193743 -0.00833853 69.34193743 -0.00833853 87.28125 16.765625 C91.68661247 21.55645669 95.53415381 26.93932554 98.97722328 32.46020937 C100.0635444 34.22218429 100.0635444 34.22218429 101.37686551 35.81124067 C107.02841037 43.86077374 105.79690903 53.62929533 105.75119019 63.02062988 C105.75946461 65.07544761 105.76991775 67.13025752 105.78234947 69.1850543 C105.81022959 74.85218321 105.80688183 80.51893392 105.79853076 86.18610954 C105.79487028 92.35404279 105.81997102 98.5218702 105.84132767 104.6897583 C105.87473103 115.51944573 105.88940383 126.34899718 105.89136124 137.1787262 C105.89350257 148.80127105 105.9061374 160.42373144 105.93160629 172.04624939 C105.93320394 172.78032058 105.93480159 173.51439176 105.93644766 174.27070753 C105.94297836 177.26155105 105.94956378 180.25239443 105.95622438 183.24323766 C106.02968932 216.3189879 106.05983526 249.39471098 106.07836082 282.4705312 C106.07883344 283.31433894 106.07930607 284.15814668 106.07979302 285.02752435 C106.08074687 286.7365981 106.08169447 288.44567185 106.08263585 290.15474561 C106.09270334 308.29497029 106.10997674 326.43518552 106.12818787 344.57540357 C106.21836147 434.58423468 106.23825093 524.59298619 106.22321615 617.38603103 C106.21860341 645.91148948 106.21958601 674.43694395 106.22412109 702.96240234 C106.22947082 736.71728629 106.23161108 770.4721679 106.22850883 804.22705221 C106.22818835 807.8070027 106.22787551 811.38695319 106.22756577 814.96690369 C106.22748669 815.84726935 106.22740761 816.72763502 106.22732614 817.63467843 C106.22619712 830.82180634 106.22750066 844.00893251 106.23004532 857.19606018 C106.23289227 872.01588233 106.23221076 886.83569951 106.22676457 901.65552104 C106.22382986 909.91114236 106.22363558 918.16675289 106.22741075 926.42237393 C106.22991358 932.57277976 106.22720478 938.7231728 106.22243617 944.87357706 C106.22131742 947.36041606 106.22189121 949.84725651 106.22431196 952.33409458 C106.22734455 955.70620743 106.22424226 959.07826105 106.21959114 962.45037079 C106.22193231 963.4178678 106.22427347 964.38536481 106.22668558 965.38217992 C106.20276677 974.03386262 106.0640997 981.70131435 101.71875 989.390625 C101.3693335 990.02355469 101.01991699 990.65648437 100.65991211 991.30859375 C90.02348839 1009.92637557 75.98008365 1021.33684003 55.33178711 1027.31713867 C28.48215554 1034.5434317 -0.16604272 1036.79879593 -26.90625 1028.203125 C-27.6482666 1027.96787109 -28.3902832 1027.73261719 -29.15478516 1027.49023438 C-44.06343903 1022.63547649 -58.92351728 1015.65045574 -66.89892578 1001.43359375 C-77.35592399 979.90888559 -76.54592859 955.15408708 -76.6125067 931.84791961 C-76.63036316 927.07727879 -76.67070812 922.30680943 -76.70742702 917.53628349 C-76.77748844 907.90058881 -76.82450107 898.26490201 -76.86314205 888.62903496 C-76.89640797 880.35121955 -76.93638628 872.07345923 -76.98006058 863.79569244 C-77.15978766 829.41857114 -77.28665345 795.04139334 -77.39687828 760.66399378 C-77.43177186 749.79000771 -77.46817656 738.91602744 -77.50549126 728.04204941 C-77.50954719 726.85918481 -77.50954719 726.85918481 -77.51368506 725.65242395 C-77.52468214 722.44540917 -77.53568367 719.23839441 -77.54669279 716.03137968 C-77.64927023 686.14190344 -77.74778433 656.25241507 -77.84438406 626.36291898 C-77.92566949 601.21953198 -78.01017724 576.07615821 -78.09802915 550.9327933 C-78.3747186 471.72506453 -78.63234311 392.51731989 -78.87355215 295.42061289 C-78.8950511 286.66664009 -78.91719438 277.91266921 -78.939911 269.15869949 C-79.0198387 238.35647395 -79.09015268 207.55428752 -79.1248309 176.7519697 C-79.12759184 174.31535807 -79.13036355 171.87874646 -79.13314629 169.44213486 C-79.13450352 168.25010279 -79.13586076 167.05807073 -79.13725913 165.82991648 C-79.14738164 157.59222957 -79.165112 149.3545816 -79.18641853 141.11691666 C-79.21165936 131.3275128 -79.22663075 121.53816437 -79.22750287 111.74872664 C-79.2281846 106.85234029 -79.23340137 101.95608416 -79.25194812 97.05973005 C-79.26863862 92.61686311 -79.27114755 88.17421418 -79.2626894 83.73132597 C-79.26204994 82.14582607 -79.26635087 80.5603135 -79.27649272 78.9748459 C-79.32529414 70.89586615 -78.94988836 63.07940647 -77.61059666 55.10023689 C-77.49950294 54.41743792 -77.38840922 53.73463894 -77.27394902 53.03114908 C-73.99720733 35.46189418 -59.82476702 23.0146051 -45.90625 13.203125 C-44.86339844 12.45546875 -43.82054688 11.7078125 -42.74609375 10.9375 C-29.90629381 2.34581231 -15.23753963 0.08584197 0 0 Z " transform="translate(3345.90625,540.796875)" style="fill: #000000;"/><path d="M0 0 C3.32263354 3.23065753 6.32491367 6.60936264 9.2578125 10.1953125 C9.90339111 10.97237549 9.90339111 10.97237549 10.56201172 11.76513672 C34.04198789 40.07945949 42.34137051 67.30878894 42.5078125 104.0703125 C42.5171582 105.38990967 42.52650391 106.70950684 42.53613281 108.0690918 C42.49806599 119.66849121 41.06430821 129.50288164 36.3828125 140.1328125 C35.99279053 141.02742187 35.60276855 141.92203125 35.20092773 142.84375 C20.37594793 175.83055897 -4.55273749 205.43829723 -38.7421875 219.1953125 C-51.03812729 223.6499856 -63.17475959 224.34153777 -76.1484375 224.3984375 C-77.1938269 224.40413757 -78.23921631 224.40983765 -79.31628418 224.41571045 C-81.51455701 224.42508518 -83.71284342 224.43166411 -85.91113281 224.43554688 C-89.20664139 224.44520829 -92.50151319 224.47628736 -95.796875 224.5078125 C-105.89261527 224.5591838 -115.80668836 224.35283386 -125.80859375 222.8828125 C-126.59355225 222.76818665 -127.37851074 222.65356079 -128.18725586 222.53546143 C-136.32738283 221.17914122 -143.44892106 217.93550018 -150.7421875 214.1953125 C-151.825 213.67066406 -152.9078125 213.14601563 -154.0234375 212.60546875 C-180.04571496 199.43330108 -201.36072526 178.38561353 -211.0546875 150.5078125 C-211.28510742 149.86303955 -211.51552734 149.2182666 -211.75292969 148.55395508 C-217.05027044 132.16214701 -217.19677642 115.13115307 -217.07836914 98.08740234 C-217.05463313 94.43695136 -217.0578514 90.78722828 -217.06445312 87.13671875 C-217.03911963 64.55737595 -216.37532338 45.85188618 -200.7421875 28.1953125 C-199.06929476 26.22140562 -197.40288552 24.24199005 -195.7421875 22.2578125 C-194.89527344 21.25105469 -194.04835938 20.24429688 -193.17578125 19.20703125 C-190.9102051 16.40324439 -188.85033657 13.53629448 -186.8046875 10.5703125 C-169.21124184 -13.89228725 -138.91492323 -28.07915455 -110.05859375 -33.28125 C-68.94750504 -39.76992596 -30.68453723 -28.37598271 0 0 Z " transform="translate(2799.7421875,222.8046875)" style="fill: #737EE2;"/><path d="M0 0 C13.08084699 1.36647025 20.19476449 4.29155332 29.58007812 13.61279297 C31.56613042 15.55308683 33.6564659 17.36443926 35.75 19.1875 C41.08542657 23.96175711 46.10195581 29.04598724 51.11621094 34.15307617 C54.97715653 38.06467135 58.95185805 41.74438958 63.11621094 45.33007812 C66.43632539 48.2732589 69.46997631 51.49611519 72.50976562 54.72460938 C76.03125063 58.34952919 79.52123541 60.64746443 84 63 C89.34159386 65.99129256 92.43959734 69.48267215 95 75 C95 75.99 95 76.98 95 78 C95.825 78.165 96.65 78.33 97.5 78.5 C101.77679382 80.33291164 104.12579903 82.85768772 107.265625 86.22265625 C108.89008387 88.08162991 108.89008387 88.08162991 111 89 C111 89.66 111 90.32 111 91 C111.66 91 112.32 91 113 91 C113 91.66 113 92.32 113 93 C113.66 93 114.32 93 115 93 C116.62109375 94.79296875 116.62109375 94.79296875 118.4375 97.1875 C119.03433594 97.96480469 119.63117188 98.74210938 120.24609375 99.54296875 C122 102 122 102 123.29052734 104.32446289 C125.25768035 107.40330176 127.49824292 109.70685717 130.10546875 112.265625 C130.5895369 112.74449158 131.07360504 113.22335815 131.57234192 113.71673584 C133.10600611 115.23270516 134.64624447 116.74175245 136.1875 118.25 C137.73852974 119.77343135 139.28807268 121.2983042 140.83479309 122.82611084 C142.22931827 124.2027891 143.62858704 125.5746573 145.02807617 126.94628906 C147 129 147 129 147 130 C75.39 130 3.78 130 -70 130 C-67.8595905 108.59590504 -59.37383448 94.75238531 -47.56640625 77.30078125 C-30.64278052 52.25670887 -15.51430646 25.93129944 0 0 Z " transform="translate(1691,505)" style="fill: #E24FDD;"/><path d="M0 0 C1.27230469 0.01804687 2.54460938 0.03609375 3.85546875 0.0546875 C4.83128906 0.07789063 5.80710937 0.10109375 6.8125 0.125 C18.10475995 30.40424569 22.23709597 63.1713748 23.375 95.3125 C23.43977539 96.94928711 23.43977539 96.94928711 23.50585938 98.61914062 C23.8421449 107.805607 23.8125 116.91425984 23.8125 126.125 C-24.6975 126.125 -73.2075 126.125 -123.1875 126.125 C-123.1875 116.125 -123.1875 116.125 -121.38671875 113.49609375 C-120.55785156 112.85800781 -119.72898437 112.21992187 -118.875 111.5625 C-117.96363281 110.8303125 -117.05226563 110.098125 -116.11328125 109.34375 C-115.14777344 108.6115625 -114.18226563 107.879375 -113.1875 107.125 C-111.30736529 105.61051907 -109.43230036 104.08972155 -107.5625 102.5625 C-106.18771484 101.45068359 -106.18771484 101.45068359 -104.78515625 100.31640625 C-101.78255585 97.78338546 -99.03436556 95.0900808 -96.33203125 92.2421875 C-94.41275277 90.3473807 -92.44043657 88.60646393 -90.39453125 86.8515625 C-86.34718789 83.33574503 -82.68781309 79.56906518 -79.0625 75.625 C-78.1041626 74.59221924 -78.1041626 74.59221924 -77.12646484 73.53857422 C-75.80095372 72.1100728 -74.47689991 70.68021778 -73.15429688 69.24902344 C-71.25057429 67.19311647 -69.33827284 65.14565317 -67.421875 63.1015625 C-61.69979407 56.99770286 -56.01983864 50.86483343 -50.44140625 44.62890625 C-46.28345984 40.00976648 -42.05705201 35.45383752 -37.83056641 30.89746094 C-36.71197452 29.69077786 -35.59450453 28.48305403 -34.47802734 27.27441406 C-28.24531885 20.52797296 -21.97874249 13.82419541 -15.5 7.3125 C-15.00693359 6.81484131 -14.51386719 6.31718262 -14.00585938 5.80444336 C-9.24070244 1.06017158 -6.74881142 -0.1238314 0 0 Z " transform="translate(3077.1875,508.875)" style="fill: #727FE1;"/><path d="M0 0 C4.66666667 2.33333333 9.33333333 4.66666667 14 7 C14.70640625 7.28875 15.4128125 7.5775 16.140625 7.875 C18.59659657 9.36096599 19.42251056 10.97613118 20.75 13.5 C21.17796875 14.2940625 21.6059375 15.088125 22.046875 15.90625 C23 18 23 18 23 20 C21.35 20.33 19.7 20.66 18 21 C17.20335937 20.04738281 16.40671875 19.09476562 15.5859375 18.11328125 C14.51589523 16.84612593 13.44556747 15.57921163 12.375 14.3125 C11.85292969 13.68666016 11.33085938 13.06082031 10.79296875 12.41601562 C8.22794492 9.39182086 5.70255507 6.65003893 2.6015625 4.16796875 C1.74304688 3.45253906 0.88453125 2.73710937 0 2 C0 1.34 0 0.68 0 0 Z " transform="translate(908,299)" style="fill: #E34FDB;"/></svg>